<svg xmlns="http://www.w3.org/2000/svg" xmlns:xlink="http://www.w3.org/1999/xlink" width="180" height="180" viewBox="0 0 180 180" fill="none"><g opacity="1"  transform="translate(0 0)  rotate(0)"><g opacity="1"  transform="translate(0 0)  rotate(0)"><path id="圆形 1" fill-rule="evenodd" style="fill:#77DDFF" opacity="1" d="M90 0C40.29 0 0 40.29 0 90C0 139.71 40.29 180 90 180C139.71 180 180 139.71 180 90C180 40.29 139.71 0 90 0Z"></path><g opacity="1"  transform="translate(31 62)  rotate(0)"><path id="圆形 3" fill-rule="evenodd" fill="url(#linear_0)" opacity="1" d="M58.5 8.9743C26.19 8.9743 0 15.0043 0 22.4343C0 29.8743 26.19 35.8943 58.5 35.8943C90.81 35.8943 117 29.8743 117 22.4343C117 15.0043 90.81 8.9743 58.5 8.9743Z"></path><path id="圆形 3" fill-rule="evenodd" fill="url(#linear_1)" opacity="1" d="M58.5 23.0769C26.19 23.0769 0 29.1069 0 36.5369C0 43.9769 26.19 49.9969 58.5 49.9969C90.81 49.9969 117 43.9769 117 36.5369C117 29.1069 90.81 23.0769 58.5 23.0769Z"></path><path  id="圆形 3" style="fill:#000000; opacity:1;" d="M58.5,23.5769c-7.9182,0 -15.49253,0.35197 -22.723,1.0559c-6.977,0.67927 -13.15403,1.63763 -18.5311,2.8751c-5.35302,1.23193 -9.48967,2.64213 -12.40995,4.2306c-1.44909,0.7882 -2.5404,1.59457 -3.27391,2.4191c-0.70802,0.79593 -1.06204,1.58903 -1.06204,2.3793c0,0.79153 0.35405,1.58563 1.06216,2.3823c0.73347,0.82513 1.82475,1.63193 3.27384,2.4204c2.91976,1.5886 7.05636,2.9986 12.4098,4.23c5.376,1.2366 11.55307,2.1942 18.5312,2.8728c7.2292,0.703 14.80353,1.0545 22.723,1.0545c7.91953,0 15.49387,-0.3515 22.723,-1.0545c6.97813,-0.6786 13.1552,-1.6362 18.5312,-2.8728c5.3532,-1.2314 9.4898,-2.6414 12.4098,-4.23c1.44933,-0.78847 2.54067,-1.59527 3.274,-2.4204c0.708,-0.79667 1.062,-1.59077 1.062,-2.3823c0,-0.79027 -0.354,-1.58337 -1.062,-2.3793c-0.73333,-0.82453 -1.82467,-1.6309 -3.274,-2.4191c-2.92,-1.58847 -7.05663,-2.99867 -12.4099,-4.2306c-5.37727,-1.23747 -11.5543,-2.19583 -18.5311,-2.8751c-7.23053,-0.70393 -14.80487,-1.0559 -22.723,-1.0559zM58.5,22.5769c7.95053,0 15.55717,0.35353 22.8199,1.0606c7.0198,0.68347 13.2393,1.64877 18.6585,2.8959c5.44173,1.25233 9.66293,2.69453 12.6636,4.3266c1.55133,0.84387 2.73233,1.72153 3.543,2.633c0.87667,0.9854 1.315,2.00003 1.315,3.0439c0,1.045 -0.43833,2.06053 -1.315,3.0466c-0.81067,0.9122 -1.99167,1.79037 -3.543,2.6345c-3,1.63227 -7.22123,3.07433 -12.6637,4.3262c-5.41793,1.2462 -11.63743,2.2107 -18.6585,2.8935c-7.2614,0.70613 -14.868,1.0592 -22.8198,1.0592c-7.95173,0 -15.55833,-0.35307 -22.8198,-1.0592c-7.021,-0.6828 -13.2405,-1.6473 -18.6585,-2.8935c-5.44246,-1.25187 -9.66367,-2.69393 -12.66364,-4.3262c-1.55137,-0.84413 -2.73248,-1.7223 -3.54331,-2.6345c-0.8765,-0.98607 -1.31475,-2.0016 -1.31475,-3.0466c0,-1.04387 0.43829,-2.0585 1.31488,-3.0439c0.81086,-0.91153 1.99193,-1.7892 3.54323,-2.633c3.00041,-1.63207 7.22157,-3.07427 12.66348,-4.3266c5.41907,-1.24713 11.63857,-2.21243 18.6585,-2.8959c7.26273,-0.70707 14.86937,-1.0606 22.8199,-1.0606z"></path><path id="矩形 1" fill-rule="evenodd" fill="url(#linear_2)" opacity="1" d="M0 37.179L117 37.179L117 24.359L0 24.359L0 37.179Z"></path><path  id="矩形 1" style="fill:#000000; opacity:1;" d="M0.5,37.179h-1v-12.82h1zM116.5,24.359h1v12.82h-1z"></path><path id="圆形 3" fill-rule="evenodd" fill="url(#linear_3)" opacity="1" d="M58.5 10.2564C26.19 10.2564 0 16.2864 0 23.7164C0 31.1564 26.19 37.1764 58.5 37.1764C90.81 37.1764 117 31.1564 117 23.7164C117 16.2864 90.81 10.2564 58.5 10.2564Z"></path><path  id="圆形 3" style="fill:#000000; opacity:1;" d="M58.5,10.7564c-7.9182,0 -15.49253,0.35197 -22.723,1.0559c-6.977,0.67927 -13.15403,1.63763 -18.5311,2.8751c-5.35302,1.23193 -9.48967,2.6421 -12.40995,4.2305c-1.44909,0.78827 -2.5404,1.59467 -3.27391,2.4192c-0.70802,0.79593 -1.06204,1.58903 -1.06204,2.3793h-0.5h0.5c0,0.79153 0.35405,1.5856 1.06216,2.3822c0.73347,0.8252 1.82475,1.63203 3.27384,2.4205c2.91976,1.5886 7.05636,2.9986 12.4098,4.23c5.376,1.2366 11.55307,2.19417 18.5312,2.8727c7.2292,0.70307 14.80353,1.0546 22.723,1.0546v0.5v-0.5c7.91953,0 15.49387,-0.35153 22.723,-1.0546c6.97813,-0.6786 13.1552,-1.63617 18.5312,-2.8727c5.3532,-1.2314 9.4898,-2.6414 12.4098,-4.23c1.44933,-0.78847 2.54067,-1.5953 3.274,-2.4205c0.708,-0.7966 1.062,-1.59067 1.062,-2.3822h0.5h-0.5c0,-0.79027 -0.354,-1.58337 -1.062,-2.3793c-0.73333,-0.82453 -1.82467,-1.63093 -3.274,-2.4192c-2.92,-1.58847 -7.05663,-2.99863 -12.4099,-4.2305c-5.37727,-1.23747 -11.5543,-2.19583 -18.5311,-2.8751c-7.23053,-0.70393 -14.80487,-1.0559 -22.723,-1.0559v-0.5zM58.5,9.75638v0c7.95053,0 15.55717,0.35354 22.8199,1.06062c7.0198,0.68347 13.2393,1.64877 18.6585,2.8959c5.44173,1.25233 9.66293,2.69453 12.6636,4.3266c1.55133,0.8438 2.73233,1.72147 3.543,2.633c0.87667,0.98533 1.315,1.99997 1.315,3.0439v0c0,1.045 -0.43833,2.06053 -1.315,3.0466c-0.81067,0.9122 -1.99167,1.79033 -3.543,2.6344c-3,1.63233 -7.22123,3.0744 -12.6637,4.3262c-5.41793,1.24627 -11.63743,2.21077 -18.6585,2.8935c-7.2614,0.7062 -14.868,1.0593 -22.8198,1.0593v0c-7.95173,0 -15.55833,-0.35307 -22.8198,-1.0592c-7.021,-0.6828 -13.2405,-1.6473 -18.6585,-2.8935c-5.44246,-1.25187 -9.66367,-2.69397 -12.66364,-4.3263c-1.55137,-0.84407 -2.73248,-1.7222 -3.54331,-2.6344c-0.8765,-0.98607 -1.31475,-2.0016 -1.31475,-3.0466h0c0,-1.04387 0.43829,-2.0585 1.31488,-3.0439c0.81086,-0.91153 1.99193,-1.7892 3.54323,-2.633c3.00041,-1.63207 7.22157,-3.07427 12.66348,-4.3266c5.41907,-1.24713 11.63857,-2.21243 18.6585,-2.8959c7.26273,-0.70708 14.86937,-1.06062 22.8199,-1.06062z"></path><path id="圆形 2" fill-rule="evenodd" fill="url(#linear_4)" opacity="1" d="M59.2178 0C48.6078 0 38.7978 1.74 30.7578 4.3C18.1878 8.31 9.98779 14.32 9.98779 18.79C9.98779 26.11 32.0278 32.05 59.2178 32.05C86.3978 32.05 108.438 26.11 108.438 18.79C108.438 11.46 86.3978 0 59.2178 0Z"></path><path  id="圆形 2" style="fill:#000000; opacity:1;" d="M59.2178,0.35c-5.08413,0 -10.13053,0.39524 -15.1392,1.18572c-4.60767,0.7272 -9.01253,1.75979 -13.2146,3.09778c-3.06867,0.97895 -5.9037,2.08235 -8.5051,3.3102c-2.4996,1.17981 -4.6655,2.41797 -6.4977,3.7145c-1.79453,1.26987 -3.1673,2.52297 -4.1183,3.7593c-0.93673,1.21767 -1.4051,2.34183 -1.4051,3.3725c0,0.82493 0.3096,1.64483 0.9288,2.4597c0.6246,0.82187 1.55053,1.62357 2.7778,2.4051c2.46107,1.56713 5.94547,2.9579 10.4532,4.1723c4.52567,1.2192 9.72463,2.16343 15.5969,2.8327c6.08493,0.69347 12.45937,1.0402 19.1233,1.0402c6.66127,0 13.03377,-0.34673 19.1175,-1.0402c5.8706,-0.6692 11.06857,-1.61343 15.5939,-2.8327c4.5072,-1.2144 7.99113,-2.60517 10.4518,-4.1723c1.22733,-0.78153 2.15333,-1.58323 2.778,-2.4051c0.61933,-0.81493 0.929,-1.63483 0.929,-2.4597c0,-0.84053 -0.31467,-1.74783 -0.944,-2.7219c-0.638,-0.9876 -1.57167,-2.00063 -2.801,-3.0391c-1.244,-1.0514 -2.74003,-2.08571 -4.4881,-3.10294c-1.79147,-1.04233 -3.78193,-2.0282 -5.9714,-2.95763c-2.27273,-0.96478 -4.68947,-1.8385 -7.2502,-2.62115c-2.68413,-0.82039 -5.46,-1.52007 -8.3276,-2.09905c-6.26773,-1.26549 -12.63037,-1.89823 -19.0879,-1.89823zM59.2178,-0.35c6.50413,0 12.91293,0.63736 19.2264,1.91208c2.88993,0.58348 5.68783,1.28874 8.3937,2.11577c2.5842,0.78981 5.02393,1.67188 7.3192,2.64623c2.21647,0.94089 4.2331,1.93987 6.0499,2.99694c1.78333,1.03779 3.31267,2.09558 4.588,3.17338c1.282,1.08327 2.261,2.14787 2.937,3.1938c0.704,1.08967 1.056,2.1236 1.056,3.1018c0,0.98207 -0.35733,1.94313 -1.072,2.8832c-0.67467,0.88833 -1.661,1.74567 -2.959,2.572c-2.52067,1.60553 -6.0692,3.0248 -10.6456,4.2578c-4.55913,1.22833 -9.7914,2.1791 -15.6968,2.8523c-6.11013,0.69647 -12.50907,1.0447 -19.1968,1.0447c-6.69047,0 -13.09133,-0.34823 -19.2026,-1.0447c-5.907,-0.67327 -11.14023,-1.62403 -15.6997,-2.8523c-4.57673,-1.233 -8.12577,-2.65227 -10.6471,-4.2578c-1.29767,-0.82633 -2.28403,-1.68367 -2.9591,-2.572c-0.71434,-0.94007 -1.07151,-1.90113 -1.07151,-2.8832c0,-1.18933 0.51674,-2.45577 1.55021,-3.7993c0.99393,-1.29207 2.4169,-2.59337 4.2689,-3.9039c1.8656,-1.32015 4.06667,-2.57886 6.6032,-3.77612c2.62933,-1.24105 5.49317,-2.35577 8.5915,-3.34418c4.23587,-1.34875 8.67517,-2.38949 13.3179,-3.12222c5.04473,-0.79619 10.1275,-1.19428 15.2483,-1.19428z"></path></g></g><path id="圆形 1" fill-rule="evenodd" style="fill:#FFFFFF" opacity="1" d="M57.5 58C56.67 58 56 59.57 56 61.5C56 63.43 56.67 65 57.5 65C58.33 65 59 63.43 59 61.5C59 59.57 58.33 58 57.5 58Z"></path><path id="圆形 1" fill-rule="evenodd" style="fill:#FFFFFF" opacity="1" d="M60.5 25.0244C59.12 25.0244 58 26.4044 58 28.0944C58 29.7944 59.12 31.1744 60.5 31.1744C61.88 31.1744 63 29.7944 63 28.0944C63 26.4044 61.88 25.0244 60.5 25.0244Z"></path><path id="圆形 1" fill-rule="evenodd" style="fill:#FFFFFF" opacity="1" d="M135.5 68C134.67 68 134 69.38 134 71.07C134 72.77 134.67 74.15 135.5 74.15C136.33 74.15 137 72.77 137 71.07C137 69.38 136.33 68 135.5 68Z"></path><path id="圆形 1" fill-rule="evenodd" style="fill:#FFFFFF" opacity="1" d="M98.5 38.3415C97.67 38.3415 97 39.2615 97 40.3915C97 41.5215 97.67 42.4415 98.5 42.4415C99.33 42.4415 100 41.5215 100 40.3915C100 39.2615 99.33 38.3415 98.5 38.3415Z"></path><path id="圆形 1" fill-rule="evenodd" style="fill:#FFFFFF" opacity="1" d="M76.5 62C75.67 62 75 63.12 75 64.5C75 65.88 75.67 67 76.5 67C77.33 67 78 65.88 78 64.5C78 63.12 77.33 62 76.5 62Z"></path><path id="圆形 1" fill-rule="evenodd" style="fill:#FFFFFF" opacity="1" d="M122.5 21C121.12 21 120 22.38 120 24.07C120 25.77 121.12 27.15 122.5 27.15C123.88 27.15 125 25.77 125 24.07C125 22.38 123.88 21 122.5 21Z"></path><path id="圆形 1" fill-rule="evenodd" style="fill:#FFFFFF" opacity="1" d="M91.5 24C90.67 24 90 25.38 90 27.07C90 28.77 90.67 30.15 91.5 30.15C92.33 30.15 93 28.77 93 27.07C93 25.38 92.33 24 91.5 24Z"></path><path id="圆形 1" fill-rule="evenodd" style="fill:#FFFFFF" opacity="1" d="M43.5 48C42.67 48 42 48.92 42 50.05C42 51.18 42.67 52.1 43.5 52.1C44.33 52.1 45 51.18 45 50.05C45 48.92 44.33 48 43.5 48Z"></path><path id="圆形 1" fill-rule="evenodd" style="fill:#FFFFFF" opacity="1" d="M110.5 62C109.67 62 109 63.57 109 65.5C109 67.43 109.67 69 110.5 69C111.33 69 112 67.43 112 65.5C112 63.57 111.33 62 110.5 62Z"></path><path id="圆形 1" fill-rule="evenodd" style="fill:#FFFFFF" opacity="1" d="M53.5 73.6585C52.67 73.6585 52 75.2285 52 77.1585C52 79.0885 52.67 80.6585 53.5 80.6585C54.33 80.6585 55 79.0885 55 77.1585C55 75.2285 54.33 73.6585 53.5 73.6585Z"></path><path id="圆形 1" fill-rule="evenodd" style="fill:#FFFFFF" opacity="1" d="M123.5 75.5122C122.67 75.5122 122 76.8922 122 78.5822C122 80.2822 122.67 81.6622 123.5 81.6622C124.33 81.6622 125 80.2822 125 78.5822C125 76.8922 124.33 75.5122 123.5 75.5122Z"></path><path id="圆形 1" fill-rule="evenodd" style="fill:#FFFFFF" opacity="1" d="M94.5 54C93.67 54 93 54.9 93 56C93 57.1 93.67 58 94.5 58C95.33 58 96 57.1 96 56C96 54.9 95.33 54 94.5 54Z"></path><path id="圆形 1" fill-rule="evenodd" style="fill:#FFFFFF" opacity="1" d="M86.5 70.6585C85.67 70.6585 85 71.7785 85 73.1585C85 74.5385 85.67 75.6585 86.5 75.6585C87.33 75.6585 88 74.5385 88 73.1585C88 71.7785 87.33 70.6585 86.5 70.6585Z"></path><path id="圆形 1" fill-rule="evenodd" style="fill:#FFFFFF" opacity="1" d="M78.5 13C77.67 13 77 13.92 77 15.05C77 16.18 77.67 17.1 78.5 17.1C79.33 17.1 80 16.18 80 15.05C80 13.92 79.33 13 78.5 13Z"></path><path id="圆形 1" fill-rule="evenodd" style="fill:#FFFFFF" opacity="1" d="M106.5 77.6585C105.67 77.6585 105 79.2285 105 81.1585C105 83.0885 105.67 84.6585 106.5 84.6585C107.33 84.6585 108 83.0885 108 81.1585C108 79.2285 107.33 77.6585 106.5 77.6585Z"></path><path id="圆形 1" fill-rule="evenodd" style="fill:#FFFFFF" opacity="1" d="M72.5 48.6585C71.67 48.6585 71 50.2285 71 52.1585C71 54.0885 71.67 55.6585 72.5 55.6585C73.33 55.6585 74 54.0885 74 52.1585C74 50.2285 73.33 48.6585 72.5 48.6585Z"></path><path id="圆形 1" fill-rule="evenodd" style="fill:#FFFFFF" opacity="1" d="M126.5 38C125.67 38 125 39.38 125 41.07C125 42.77 125.67 44.15 126.5 44.15C127.33 44.15 128 42.77 128 41.07C128 39.38 127.33 38 126.5 38Z"></path><path id="圆形 1" fill-rule="evenodd" style="fill:#FFFFFF" opacity="1" d="M113.5 29C112.67 29 112 29.92 112 31.05C112 32.18 112.67 33.1 113.5 33.1C114.33 33.1 115 32.18 115 31.05C115 29.92 114.33 29 113.5 29Z"></path><path id="圆形 1" fill-rule="evenodd" style="fill:#FFFFFF" opacity="1" d="M105.5 45.6585C104.67 45.6585 104 46.7785 104 48.1585C104 49.5385 104.67 50.6585 105.5 50.6585C106.33 50.6585 107 49.5385 107 48.1585C107 46.7785 106.33 45.6585 105.5 45.6585Z"></path><path id="圆形 1" fill-rule="evenodd" style="fill:#FFFFFF" opacity="1" d="M58.5 38.6585C57.67 38.6585 57 39.5785 57 40.7085C57 41.8385 57.67 42.7585 58.5 42.7585C59.33 42.7585 60 41.8385 60 40.7085C60 39.5785 59.33 38.6585 58.5 38.6585Z"></path><path id="圆形 1" fill-rule="evenodd" style="fill:#FFFFFF" opacity="1" d="M125.5 52.6585C124.67 52.6585 124 54.2285 124 56.1585C124 58.0885 124.67 59.6585 125.5 59.6585C126.33 59.6585 127 58.0885 127 56.1585C127 54.2285 126.33 52.6585 125.5 52.6585Z"></path></g><defs><linearGradient id="linear_0" x1="0%" y1="50%" x2="100%" y2="50%" gradientUnits="objectBoundingBox"><stop offset="0.1026" stop-color="#CCCCCC" stop-opacity="1" /><stop offset="1" stop-color="#FFC2C2" stop-opacity="0.91" /></linearGradient><linearGradient id="linear_1" x1="0%" y1="50%" x2="100%" y2="50%" gradientUnits="objectBoundingBox"><stop offset="0.1026" stop-color="#CCCCCC" stop-opacity="1" /><stop offset="1" stop-color="#FFC2C2" stop-opacity="0.91" /></linearGradient><linearGradient id="linear_2" x1="0%" y1="50%" x2="100%" y2="50%" gradientUnits="objectBoundingBox"><stop offset="0.1026" stop-color="#CCCCCC" stop-opacity="1" /><stop offset="1" stop-color="#FFC2C2" stop-opacity="0.91" /></linearGradient><linearGradient id="linear_3" x1="0%" y1="50%" x2="100%" y2="50%" gradientUnits="objectBoundingBox"><stop offset="0.1026" stop-color="#CCCCCC" stop-opacity="1" /><stop offset="1" stop-color="#FFC2C2" stop-opacity="0.91" /></linearGradient><linearGradient id="linear_4" x1="0%" y1="50%" x2="100%" y2="50%" gradientUnits="objectBoundingBox"><stop offset="0" stop-color="#F16C4E" stop-opacity="1" /><stop offset="1" stop-color="#FF7195" stop-opacity="0.91" /></linearGradient></defs></svg>