<svg xmlns="http://www.w3.org/2000/svg" xmlns:xlink="http://www.w3.org/1999/xlink" width="180" height="180.0000228881836" viewBox="0 0 180 180.0000228881836" fill="none"><g opacity="1"  transform="translate(0 0)  rotate(0)"><path id="圆形 1" fill-rule="evenodd" style="fill:#77DDFF" opacity="1" d="M90 0C40.29 0 0 40.29 0 90C0 139.71 40.29 180 90 180C139.71 180 180 139.71 180 90C180 40.29 139.71 0 90 0Z"></path><path id="圆形 1" fill-rule="evenodd" style="fill:#FFFFFF" opacity="1" d="M147 54.3214C146.45 54.3214 146 54.9714 146 55.7714C146 56.5714 146.45 57.2114 147 57.2114C147.55 57.2114 148 56.5714 148 55.7714C148 54.9714 147.55 54.3214 147 54.3214Z"></path><path id="圆形 1" fill-rule="evenodd" style="fill:#FFFFFF" opacity="1" d="M131.5 36C130.67 36 130 36.86 130 37.93C130 38.99 130.67 39.86 131.5 39.86C132.33 39.86 133 38.99 133 37.93C133 36.86 132.33 36 131.5 36Z"></path><path id="圆形 1" fill-rule="evenodd" style="fill:#FFFFFF" opacity="1" d="M131 60.1071C130.45 60.1071 130 60.7571 130 61.5571C130 62.3571 130.45 62.9972 131 62.9972C131.55 62.9972 132 62.3571 132 61.5571C132 60.7571 131.55 60.1071 131 60.1071Z"></path><path id="圆形 1" fill-rule="evenodd" style="fill:#FFFFFF" opacity="1" d="M141 45.6429C140.45 45.6429 140 46.2929 140 47.0929C140 47.8929 140.45 48.5329 141 48.5329C141.55 48.5329 142 47.8929 142 47.0929C142 46.2929 141.55 45.6429 141 45.6429Z"></path><path id="圆形 1" fill-rule="evenodd" style="fill:#FFFFFF" opacity="1" d="M121 49.5C120.45 49.5 120 50.15 120 50.95C120 51.75 120.45 52.39 121 52.39C121.55 52.39 122 51.75 122 50.95C122 50.15 121.55 49.5 121 49.5Z"></path><g opacity="1"  transform="translate(50.99981689453125 45.000152587890625)  rotate(0)"><g opacity="1"  transform="translate(0.000030517578125 22.2999267578125)  rotate(0)"><path id="圆形 2" fill-rule="evenodd" fill="url(#linear_0)" opacity="1" d="M11.4998 49.9817C5.14982 49.9817 -0.0001831 52.6717 -0.000183093 55.9917C-0.000183086 59.3117 5.14982 62.0017 11.4998 62.0017C17.8498 62.0017 22.9998 59.3117 22.9998 55.9917C22.9998 52.6717 17.8498 49.9817 11.4998 49.9817Z"></path><path  id="圆形 2" style="fill:#000000; opacity:1;" d="M11.4998,50.4817c-1.52312,0 -2.97907,0.15347 -4.36786,0.4604c-1.33264,0.29453 -2.50991,0.70877 -3.53182,1.2427c-0.99998,0.52253 -1.76923,1.11647 -2.30776,1.7818c-0.52836,0.65273 -0.79254,1.32777 -0.79254,2.0251c0,0.69733 0.26418,1.37237 0.79254,2.0251c0.53853,0.66533 1.30778,1.25923 2.30776,1.7817c1.02191,0.534 2.19918,0.94827 3.53182,1.2428c1.38879,0.30693 2.84474,0.4604 4.36786,0.4604c1.52313,0 2.9791,-0.15347 4.3679,-0.4604c1.33267,-0.29453 2.50993,-0.7088 3.5318,-1.2428c1,-0.52247 1.76927,-1.11637 2.3078,-1.7817c0.52833,-0.65273 0.7925,-1.32777 0.7925,-2.0251c0,-0.69733 -0.26417,-1.37237 -0.7925,-2.0251c-0.53853,-0.66533 -1.3078,-1.25927 -2.3078,-1.7818c-1.02187,-0.53393 -2.19913,-0.94817 -3.5318,-1.2427c-1.3888,-0.30693 -2.84477,-0.4604 -4.3679,-0.4604zM11.4998,49.4817c1.59593,0 3.12383,0.16133 4.5837,0.484c1.41907,0.3136 2.67877,0.75787 3.7791,1.3328c1.12247,0.58653 1.99647,1.26617 2.622,2.0389c0.6768,0.8362 1.0152,1.72097 1.0152,2.6543c0,0.93333 -0.3384,1.8181 -1.0152,2.6543c-0.62553,0.77273 -1.49953,1.45233 -2.622,2.0388c-1.10033,0.575 -2.36003,1.0193 -3.7791,1.3329c-1.45987,0.32267 -2.98777,0.484 -4.5837,0.484c-1.59591,0 -3.1238,-0.16133 -4.58367,-0.484c-1.41906,-0.3136 -2.67877,-0.7579 -3.77912,-1.3329c-1.12247,-0.58647 -1.99645,-1.26607 -2.62193,-2.0388c-0.67684,-0.8362 -1.01527,-1.72097 -1.01526,-2.6543c0,-0.93333 0.33842,-1.8181 1.01527,-2.6543c0.62548,-0.77273 1.49945,-1.45237 2.62193,-2.0389c1.10035,-0.57493 2.36006,-1.0192 3.77912,-1.3328c1.45987,-0.32267 2.98776,-0.484 4.58367,-0.484z"></path><path id="矩形 1" fill-rule="evenodd" fill="url(#linear_1)" opacity="1" d="M-3.05176e-05 55.9899L23 55.9899L23 11.7799L-3.05176e-05 11.7799L-3.05176e-05 55.9899Z"></path><path  id="矩形 1" style="fill:#000000; opacity:1;" d="M0.49997,55.9899h-1v-44.21h1zM22.5,11.7799h1v44.21h-1z"></path><path id="圆形 2" fill-rule="evenodd" fill="url(#linear_2)" opacity="1" d="M11.5001 5.77081C5.15009 5.77081 9.14642e-05 8.46081 9.13549e-05 11.7808C9.12456e-05 15.1008 5.15009 17.7908 11.5001 17.7908C17.8501 17.7908 23.0001 15.1008 23.0001 11.7808C23.0001 8.46081 17.8501 5.77081 11.5001 5.77081Z"></path><path  id="圆形 2" style="fill:#000000; opacity:1;" d="M11.5001,6.27081c-1.52314,0 -2.9791,0.15347 -4.36789,0.46041c-1.33263,0.29453 -2.5099,0.70877 -3.53181,1.24274c-0.99998,0.52251 -1.76923,1.11643 -2.30776,1.78174c-0.52837,0.65273 -0.79255,1.32777 -0.79255,2.0251c0,0.69733 0.26418,1.37237 0.79255,2.0251c0.53853,0.66533 1.30778,1.25927 2.30776,1.7818c1.0219,0.53393 2.19917,0.94817 3.53181,1.2427c1.38879,0.30693 2.84475,0.4604 4.36789,0.4604c1.52313,0 2.9791,-0.15347 4.3679,-0.4604c1.3326,-0.29453 2.50987,-0.70877 3.5318,-1.2427c1,-0.52253 1.76923,-1.11647 2.3077,-1.7818c0.5284,-0.65273 0.7926,-1.32777 0.7926,-2.0251c0,-0.69733 -0.2642,-1.37237 -0.7926,-2.0251c-0.53847,-0.66531 -1.3077,-1.25923 -2.3077,-1.78174c-1.02193,-0.53397 -2.1992,-0.94821 -3.5318,-1.24274c-1.3888,-0.30694 -2.84477,-0.46041 -4.3679,-0.46041zM11.5001,5.27081c1.59593,0 3.12383,0.16132 4.5837,0.48397c1.41907,0.31363 2.67877,0.75792 3.7791,1.33288c1.12247,0.58652 1.99643,1.26615 2.6219,2.03889c0.67687,0.83617 1.0153,1.72092 1.0153,2.65425c0,0.93333 -0.33843,1.8181 -1.0153,2.6543c-0.62547,0.77273 -1.49943,1.45237 -2.6219,2.0389c-1.10033,0.57493 -2.36003,1.0192 -3.7791,1.3328c-1.45987,0.32267 -2.98777,0.484 -4.5837,0.484c-1.59593,0 -3.12382,-0.16133 -4.58369,-0.484c-1.41907,-0.3136 -2.67877,-0.75787 -3.77912,-1.3328c-1.12248,-0.58653 -1.99646,-1.26617 -2.62193,-2.0389c-0.67684,-0.8362 -1.01527,-1.72097 -1.01526,-2.6543c0,-0.93333 0.33842,-1.81808 1.01527,-2.65425c0.62548,-0.77274 1.49946,-1.45237 2.62193,-2.03889c1.10035,-0.57496 2.36006,-1.01925 3.77912,-1.33288c1.45986,-0.32265 2.98776,-0.48397 4.58369,-0.48397z"></path><path id="圆形 2" fill-rule="evenodd" fill="url(#linear_3)" opacity="1" d="M11.4971 10.4924C10.5971 10.4924 9.85709 10.9224 9.85709 11.4424C9.85709 11.9724 10.5971 12.4024 11.4971 12.4024C12.4071 12.4024 13.1471 11.9724 13.1471 11.4424C13.1471 10.9224 12.4071 10.4924 11.4971 10.4924Z"></path><path  id="圆形 2" style="fill:#000000; opacity:1;" d="M11.4971,10.9924c-0.36007,0 -0.6623,0.07083 -0.9067,0.2125c-0.0916,0.05313 -0.15853,0.10843 -0.2008,0.1659c-0.02167,0.02947 -0.0325,0.05333 -0.0325,0.0716c0,0.02173 0.0114,0.0483 0.0342,0.0797c0.04227,0.05813 0.10907,0.1139 0.2004,0.1673c0.2432,0.142 0.545,0.213 0.9054,0.213c0.3652,0 0.67017,-0.07117 0.9149,-0.2135c0.09167,-0.05333 0.15867,-0.10907 0.201,-0.1672c0.02273,-0.0312 0.0341,-0.05763 0.0341,-0.0793c0,-0.0182 -0.0108,-0.04193 -0.0324,-0.0712c-0.04233,-0.05747 -0.10947,-0.11273 -0.2014,-0.1658c-0.24593,-0.142 -0.55133,-0.213 -0.9162,-0.213zM11.4971,9.99237c0.54353,0 1.0156,0.11568 1.4162,0.34703c0.21267,0.12273 0.3815,0.2689 0.5065,0.4385c0.15153,0.20567 0.2273,0.42717 0.2273,0.6645c0,0.2386 -0.0752,0.4612 -0.2256,0.6678c-0.12487,0.17153 -0.2938,0.31923 -0.5068,0.4431c-0.40007,0.23273 -0.8726,0.3491 -1.4176,0.3491c-0.54087,0 -1.01077,-0.1165 -1.4097,-0.3495c-0.21224,-0.124 -0.38062,-0.27167 -0.50514,-0.443c-0.15011,-0.20667 -0.22517,-0.42917 -0.22517,-0.6675c0,-0.23707 0.07564,-0.45843 0.22691,-0.6641c0.12465,-0.16947 0.29291,-0.31563 0.5048,-0.4385c0.39947,-0.23162 0.8689,-0.34743 1.4083,-0.34743z"></path><path id="矩形 1" fill-rule="evenodd" fill="url(#linear_4)" opacity="1" d="M9.85715 11.4493L13.1471 11.4493L13.1471 2.20929L9.85715 2.20929L9.85715 11.4493Z"></path><path  id="矩形 1" style="fill:#000000; opacity:1;" d="M9.35715,11.4493v-9.74001h4.28995v9.74001h-1v-8.74001h-2.29v8.74001z"></path><path id="圆形 2" fill-rule="evenodd" fill="url(#linear_5)" opacity="1" d="M11.4971 0.000122136C10.5971 0.0001221 9.85715 0.640122 9.85715 1.43012C9.85715 2.22012 10.5971 2.86012 11.4971 2.86012C12.4071 2.86012 13.1471 2.22012 13.1471 1.43012C13.1471 0.640122 12.4071 0.000122172 11.4971 0.000122136Z"></path><path  id="圆形 2" style="fill:#000000; opacity:1;" d="M11.4971,0.50012c-0.326,0 -0.60243,0.09867 -0.8293,0.29602c-0.20713,0.18011 -0.3107,0.39144 -0.3107,0.63398c0,0.24255 0.10357,0.45387 0.3107,0.63398c0.22687,0.19735 0.5033,0.29602 0.8293,0.29602c0.33093,0 0.61057,-0.0989 0.8389,-0.2967c0.2074,-0.17963 0.3111,-0.39073 0.3111,-0.6333c0,-0.24257 -0.1037,-0.45367 -0.3111,-0.6333c-0.22833,-0.1978 -0.50797,-0.2967 -0.8389,-0.2967zM11.4971,-0.49988c0.28273,0 0.55403,0.04763 0.8139,0.14289c0.25467,0.09338 0.48123,0.22601 0.6797,0.39791c0.2038,0.17649 0.3624,0.38082 0.4758,0.61299c0.1204,0.24642 0.1806,0.50516 0.1806,0.77621c0,0.27105 -0.0602,0.52979 -0.1806,0.77622c-0.1134,0.23217 -0.272,0.43649 -0.4758,0.61298c-0.19847,0.17189 -0.42503,0.30453 -0.6797,0.39791c-0.25987,0.09526 -0.53117,0.14289 -0.8139,0.14289c-0.28067,0 -0.55037,-0.04776 -0.8091,-0.14329c-0.25333,-0.09354 -0.47883,-0.22627 -0.6765,-0.39819c-0.20297,-0.17654 -0.36099,-0.38075 -0.47407,-0.61263c-0.12019,-0.24645 -0.18028,-0.50508 -0.18028,-0.77589c0,-0.2708 0.06009,-0.52943 0.18028,-0.77588c0.11308,-0.23189 0.2711,-0.4361 0.47407,-0.61264c0.19767,-0.17192 0.42317,-0.30465 0.6765,-0.39819c0.25873,-0.09553 0.52843,-0.14329 0.8091,-0.14329z"></path></g><g opacity="1"  transform="translate(56.0001220703125 22.30010986328125)  rotate(0)"><path id="圆形 2" fill-rule="evenodd" fill="url(#linear_6)" opacity="1" d="M11.4998 49.9814C5.14985 49.9814 -0.000152582 52.6714 -0.000152575 55.9914C-0.000152569 59.3114 5.14985 62.0014 11.4998 62.0014C17.8498 62.0014 22.9998 59.3114 22.9998 55.9914C22.9998 52.6714 17.8498 49.9814 11.4998 49.9814Z"></path><path  id="圆形 2" style="fill:#000000; opacity:1;" d="M11.4998,50.4814c-1.5231,0 -2.97904,0.15347 -4.36783,0.4604c-1.33264,0.29453 -2.50991,0.70877 -3.53182,1.2427c-0.99998,0.52253 -1.76923,1.11643 -2.30776,1.7817c-0.52836,0.6528 -0.79254,1.32787 -0.79254,2.0252c0,0.69727 0.26418,1.3723 0.79254,2.0251c0.53853,0.66527 1.30778,1.25917 2.30776,1.7817c1.02191,0.534 2.19918,0.94823 3.53182,1.2427c1.38879,0.307 2.84473,0.4605 4.36783,0.4605c1.52313,0 2.9791,-0.1535 4.3679,-0.4605c1.33267,-0.29447 2.50993,-0.7087 3.5318,-1.2427c1,-0.52253 1.76927,-1.11643 2.3078,-1.7817c0.52833,-0.6528 0.7925,-1.32783 0.7925,-2.0251c0,-0.69733 -0.26417,-1.3724 -0.7925,-2.0252c-0.53853,-0.66527 -1.3078,-1.25917 -2.3078,-1.7817c-1.02187,-0.53393 -2.19913,-0.94817 -3.5318,-1.2427c-1.3888,-0.30693 -2.84477,-0.4604 -4.3679,-0.4604zM11.4998,49.4814c1.59593,0 3.12383,0.1613 4.5837,0.4839c1.41907,0.31367 2.6788,0.75797 3.7792,1.3329c1.12247,0.58653 1.99643,1.26617 2.6219,2.0389c0.6768,0.8362 1.0152,1.72097 1.0152,2.6543c0,0.93327 -0.3384,1.818 -1.0152,2.6542c-0.62547,0.77273 -1.49943,1.45237 -2.6219,2.0389c-1.1004,0.57493 -2.36013,1.01923 -3.7792,1.3329c-1.45987,0.32267 -2.98777,0.484 -4.5837,0.484c-1.59589,0 -3.12377,-0.16133 -4.58364,-0.484c-1.41906,-0.31367 -2.67877,-0.75797 -3.77912,-1.3329c-1.12247,-0.58653 -1.99645,-1.26617 -2.62193,-2.0389c-0.67684,-0.8362 -1.01527,-1.72093 -1.01527,-2.6542c0,-0.93333 0.33842,-1.8181 1.01527,-2.6543c0.62548,-0.77273 1.49945,-1.45237 2.62193,-2.0389c1.10035,-0.57493 2.36006,-1.01923 3.77912,-1.3329c1.45987,-0.3226 2.98775,-0.4839 4.58364,-0.4839z"></path><path id="矩形 1" fill-rule="evenodd" fill="url(#linear_7)" opacity="1" d="M-9.15527e-05 55.9898L22.9999 55.9898L22.9999 11.7798L-9.15527e-05 11.7798L-9.15527e-05 55.9898Z"></path><path  id="矩形 1" style="fill:#000000; opacity:1;" d="M0.49991,55.9898h-1v-44.21h1zM22.4999,11.7798h1v44.21h-1z"></path><path id="圆形 2" fill-rule="evenodd" fill="url(#linear_8)" opacity="1" d="M11.5 5.77066C5.15 5.77066 -8.8556e-08 8.46066 -1.97852e-07 11.7807C-3.07148e-07 15.1007 5.15 17.7907 11.5 17.7907C17.85 17.7907 23 15.1007 23 11.7807C23 8.46066 17.85 5.77066 11.5 5.77066Z"></path><path  id="圆形 2" style="fill:#000000; opacity:1;" d="M11.5,6.27066c-1.52313,0 -2.97909,0.15347 -4.36788,0.46041c-1.33264,0.29453 -2.50991,0.70877 -3.53181,1.24274c-0.99998,0.52251 -1.76923,1.11643 -2.30776,1.78174c-0.52837,0.65277 -0.79255,1.32782 -0.79255,2.02515c0,0.69727 0.26418,1.3723 0.79255,2.0251c0.53852,0.66527 1.30777,1.25917 2.30776,1.7817c1.0219,0.534 2.19917,0.94827 3.53181,1.2428c1.38879,0.30693 2.84475,0.4604 4.36788,0.4604c1.52313,0 2.9791,-0.15347 4.3679,-0.4604c1.3326,-0.29453 2.50987,-0.7088 3.5318,-1.2428c1,-0.52253 1.76927,-1.11643 2.3078,-1.7817c0.52833,-0.6528 0.7925,-1.32783 0.7925,-2.0251c0,-0.69733 -0.26417,-1.37238 -0.7925,-2.02515c-0.53853,-0.66531 -1.3078,-1.25923 -2.3078,-1.78174c-1.02193,-0.53397 -2.1992,-0.94821 -3.5318,-1.24274c-1.3888,-0.30694 -2.84477,-0.46041 -4.3679,-0.46041zM11.5,5.27066c1.59593,0 3.12383,0.16132 4.5837,0.48397c1.41907,0.31363 2.67877,0.75792 3.7791,1.33288c1.12247,0.58652 1.99643,1.26615 2.6219,2.03889c0.67687,0.8362 1.0153,1.72097 1.0153,2.6543c0,0.93327 -0.33843,1.818 -1.0153,2.6542c-0.62547,0.77273 -1.49943,1.45237 -2.6219,2.0389c-1.10033,0.575 -2.36003,1.0193 -3.7791,1.3329c-1.45987,0.32267 -2.98777,0.484 -4.5837,0.484c-1.59592,0 -3.12381,-0.16133 -4.58368,-0.484c-1.41907,-0.3136 -2.67878,-0.7579 -3.77913,-1.3329c-1.12247,-0.58653 -1.99645,-1.26617 -2.62192,-2.0389c-0.67684,-0.8362 -1.01527,-1.72093 -1.01527,-2.6542c0,-0.93333 0.33842,-1.8181 1.01527,-2.6543c0.62548,-0.77274 1.49946,-1.45237 2.62192,-2.03889c1.10036,-0.57496 2.36007,-1.01925 3.77913,-1.33288c1.45986,-0.32265 2.98775,-0.48397 4.58368,-0.48397z"></path><path id="圆形 2" fill-rule="evenodd" fill="url(#linear_9)" opacity="1" d="M11.497 10.4921C10.597 10.4921 9.85699 10.9221 9.85699 11.4421C9.85699 11.9721 10.597 12.4021 11.497 12.4021C12.407 12.4021 13.147 11.9721 13.147 11.4421C13.147 10.9221 12.407 10.4921 11.497 10.4921Z"></path><path  id="圆形 2" style="fill:#000000; opacity:1;" d="M11.497,10.9921c-0.36007,0 -0.6623,0.07083 -0.9067,0.2125c-0.0916,0.05313 -0.15853,0.10843 -0.2008,0.1659c-0.02167,0.02947 -0.0325,0.05333 -0.0325,0.0716c0,0.02173 0.0114,0.0483 0.0342,0.0797c0.04227,0.05813 0.1091,0.1139 0.2005,0.1673c0.24313,0.142 0.5449,0.213 0.9053,0.213c0.3652,0 0.67017,-0.07117 0.9149,-0.2135c0.09167,-0.05333 0.15867,-0.10907 0.201,-0.1672c0.02273,-0.0312 0.0341,-0.05763 0.0341,-0.0793c0,-0.0182 -0.0108,-0.04193 -0.0324,-0.0712c-0.04233,-0.05747 -0.10947,-0.11273 -0.2014,-0.1658c-0.24593,-0.142 -0.55133,-0.213 -0.9162,-0.213zM11.497,9.9921c0.54353,0 1.01563,0.11567 1.4163,0.347c0.2126,0.12273 0.3814,0.26893 0.5064,0.4386c0.15153,0.20567 0.2273,0.42713 0.2273,0.6644c0,0.2386 -0.0752,0.4612 -0.2256,0.6678c-0.12487,0.1716 -0.2938,0.31933 -0.5068,0.4432c-0.40007,0.23267 -0.8726,0.349 -1.4176,0.349c-0.54087,0 -1.01077,-0.1165 -1.4097,-0.3495c-0.21224,-0.12393 -0.38062,-0.2716 -0.50513,-0.443c-0.15011,-0.20667 -0.22517,-0.42917 -0.22517,-0.6675c0,-0.23707 0.07563,-0.45843 0.2269,-0.6641c0.12465,-0.16947 0.29291,-0.31563 0.5048,-0.4385c0.39947,-0.2316 0.8689,-0.3474 1.4083,-0.3474z"></path><path id="矩形 1" fill-rule="evenodd" fill="url(#linear_10)" opacity="1" d="M9.85712 11.4492L13.1471 11.4492L13.1471 2.2092L9.85712 2.2092L9.85712 11.4492Z"></path><path  id="矩形 1" style="fill:#000000; opacity:1;" d="M9.35712,11.4492v-9.74h4.28998v9.74h-1v-8.74h-2.29v8.74z"></path><path id="圆形 2" fill-rule="evenodd" fill="url(#linear_11)" opacity="1" d="M11.4971 -0.000122005C10.5971 -0.000122041 9.85712 0.639878 9.85712 1.42988C9.85712 2.21988 10.5971 2.85988 11.4971 2.85988C12.4071 2.85988 13.1471 2.21988 13.1471 1.42988C13.1471 0.639878 12.4071 -0.000121968 11.4971 -0.000122005Z"></path><path  id="圆形 2" style="fill:#000000; opacity:1;" d="M11.4971,0.49988c-0.326,0 -0.60247,0.09867 -0.8294,0.29602c-0.20707,0.18012 -0.3106,0.39144 -0.3106,0.63398c0,0.24254 0.10353,0.45387 0.3106,0.63398c0.22693,0.19735 0.5034,0.29602 0.8294,0.29602c0.33093,0 0.61057,-0.0989 0.8389,-0.2967c0.2074,-0.17963 0.3111,-0.39073 0.3111,-0.6333c0,-0.24257 -0.1037,-0.45367 -0.3111,-0.6333c-0.22833,-0.1978 -0.50797,-0.2967 -0.8389,-0.2967zM11.4971,-0.50012c0.28267,0 0.55393,0.04763 0.8138,0.14289c0.25473,0.09338 0.48133,0.22601 0.6798,0.39791c0.2038,0.17649 0.3624,0.38082 0.4758,0.61299c0.1204,0.24642 0.1806,0.50516 0.1806,0.77622c0,0.27105 -0.0602,0.52979 -0.1806,0.77621c-0.1134,0.23217 -0.272,0.4365 -0.4758,0.61299c-0.19847,0.17189 -0.42507,0.30453 -0.6798,0.39791c-0.25987,0.09526 -0.53113,0.14289 -0.8138,0.14289c-0.28067,0 -0.55037,-0.04776 -0.8091,-0.14329c-0.25333,-0.09354 -0.47883,-0.22627 -0.6765,-0.39819c-0.20299,-0.17654 -0.36102,-0.38075 -0.4741,-0.61264c-0.12019,-0.24645 -0.18028,-0.50507 -0.18028,-0.77588c0,-0.27081 0.06009,-0.52943 0.18028,-0.77588c0.11308,-0.23189 0.27111,-0.4361 0.4741,-0.61264c0.19767,-0.17192 0.42317,-0.30465 0.6765,-0.39819c0.25873,-0.09553 0.52843,-0.14329 0.8091,-0.14329z"></path></g><path  id="路径 1" style="fill:#FFFFFF; opacity:1;" d="M53.1429,10.4342c-2.55813,-0.75608 -5.10573,-1.13412 -7.6428,-1.13412c-0.06567,0 -0.1307,-0.00641 -0.1951,-0.01922c-0.0644,-0.01281 -0.12693,-0.03177 -0.1876,-0.0569c-0.06067,-0.02513 -0.1183,-0.05593 -0.1729,-0.09241c-0.0546,-0.03648 -0.10513,-0.07793 -0.1516,-0.12436c-0.0464,-0.04643 -0.08783,-0.09695 -0.1243,-0.15154c-0.03647,-0.05459 -0.06727,-0.11222 -0.0924,-0.17289c-0.02513,-0.06066 -0.0441,-0.12319 -0.0569,-0.18759c-0.0128,-0.0644 -0.0192,-0.12943 -0.0192,-0.19509c0,-0.06566 0.0064,-0.13069 0.0192,-0.19509c0.0128,-0.0644 0.03177,-0.12693 0.0569,-0.1876c0.02513,-0.06066 0.05593,-0.11829 0.0924,-0.17288c0.03647,-0.05459 0.0779,-0.10511 0.1243,-0.15154c0.04647,-0.04643 0.097,-0.08788 0.1516,-0.12436c0.0546,-0.03648 0.11223,-0.06728 0.1729,-0.09241c0.06067,-0.02513 0.1232,-0.0441 0.1876,-0.05691c0.0644,-0.01281 0.12943,-0.01921 0.1951,-0.01921c2.73,0 5.46657,0.40539 8.2097,1.21617c2.6952,0.79663 5.137,1.90638 7.3254,3.32925c2.2772,1.48053 4.06,3.1604 5.3484,5.0396c1.411,2.05793 2.1165,4.19627 2.1165,6.415c0,0.06567 -0.00643,0.1307 -0.0193,0.1951c-0.0128,0.0644 -0.03177,0.12693 -0.0569,0.1876c-0.02513,0.06067 -0.05593,0.11827 -0.0924,0.1728c-0.03647,0.0546 -0.0779,0.10513 -0.1243,0.1516c-0.04647,0.0464 -0.097,0.08783 -0.1516,0.1243c-0.0546,0.03653 -0.11223,0.06737 -0.1729,0.0925c-0.06067,0.02507 -0.1232,0.04403 -0.1876,0.0569c-0.0644,0.0128 -0.1294,0.0192 -0.195,0.0192c-0.13267,0 -0.26023,-0.02537 -0.3827,-0.0761c-0.12253,-0.0508 -0.23067,-0.12307 -0.3244,-0.2168c-0.0938,-0.0938 -0.16607,-0.20193 -0.2168,-0.3244c-0.05073,-0.12253 -0.0761,-0.2501 -0.0761,-0.3827v-0.0019c-0.0004,-1.80487 -0.58907,-3.5656 -1.766,-5.2822c-1.13827,-1.66007 -2.73463,-3.158 -4.7891,-4.4938c-2.02567,-1.31707 -4.29303,-2.3464 -6.8021,-3.088z"></path><g opacity="1"  transform="translate(32 0)  rotate(0)"><path id="圆形 2" fill-rule="evenodd" style="fill:#EEEEEE" opacity="1" d="M14.0652 6.36359C13.5452 6.36359 13.1252 7.17359 13.1252 8.18359C13.1252 9.18358 13.5452 10.0036 14.0652 10.0036C14.5852 10.0036 15.0052 9.18358 15.0052 8.18359C15.0052 7.17359 14.5852 6.36359 14.0652 6.36359Z"></path><path  id="圆形 2" style="fill:#000000; opacity:1;" d="M14.0652,6.86359c-0.00913,0 -0.02593,0.00996 -0.0504,0.02987c-0.05887,0.04801 -0.1157,0.12502 -0.1705,0.23104c-0.14607,0.28251 -0.2191,0.63554 -0.2191,1.05909c0,0.41997 0.07313,0.77197 0.2194,1.05602c0.05527,0.10726 0.11257,0.18526 0.1719,0.23401c0.02427,0.01997 0.0405,0.02996 0.0487,0.02996c0.00813,0 0.02433,-0.00999 0.0486,-0.02996c0.05933,-0.04875 0.11663,-0.12675 0.1719,-0.23401c0.14633,-0.28405 0.2195,-0.63605 0.2195,-1.05602c0,-0.42355 -0.07307,-0.77658 -0.2192,-1.05909c-0.0548,-0.10602 -0.11163,-0.18303 -0.1705,-0.23104c-0.02447,-0.01991 -0.04123,-0.02987 -0.0503,-0.02987zM14.0652,5.86359c0.2464,0 0.47377,0.08494 0.6821,0.25481c0.1662,0.1355 0.30853,0.31776 0.427,0.54677c0.2206,0.42656 0.3309,0.9327 0.3309,1.51842c0,0.58159 -0.1102,1.08625 -0.3306,1.51397c-0.1182,0.22956 -0.26007,0.41237 -0.4256,0.54844c-0.20887,0.17173 -0.4368,0.2576 -0.6838,0.2576c-0.24707,0 -0.47503,-0.08587 -0.6839,-0.2576c-0.16553,-0.13607 -0.3074,-0.31888 -0.4256,-0.54844c-0.22033,-0.42772 -0.3305,-0.93238 -0.3305,-1.51397c0,-0.58572 0.11027,-1.09186 0.3308,-1.51842c0.11847,-0.22901 0.2608,-0.41127 0.427,-0.54677c0.20833,-0.16987 0.43573,-0.25481 0.6822,-0.25481z"></path><path id="矩形 1" fill-rule="evenodd" style="fill:#EEEEEE" opacity="1" d="M0.937561 10.0035L14.0576 10.0035L14.0576 6.36353L0.937561 6.36353L0.937561 10.0035Z"></path><path  id="矩形 1" style="fill:#000000; opacity:1;" d="M0.93756,6.86352v-0.99999h13.12004v1zM14.0576,9.50352v0.99998h-13.12004v-0.99998z"></path><path id="圆形 2" fill-rule="evenodd" style="fill:#EEEEEE" opacity="1" d="M0.940213 6.36359C0.420213 6.36359 0.000213601 7.17359 0.000213573 8.18359C0.000213545 9.18358 0.420213 10.0036 0.940213 10.0036C1.46021 10.0036 1.88021 9.18358 1.88021 8.18359C1.88021 7.17359 1.46021 6.36359 0.940213 6.36359Z"></path><path  id="圆形 2" style="fill:#000000; opacity:1;" d="M0.94021,6.86359c-0.00911,0 -0.02588,0.00996 -0.0503,0.02987c-0.05888,0.04801 -0.11574,0.12502 -0.17056,0.23104c-0.14609,0.28251 -0.21913,0.63554 -0.21913,1.05909c0,0.41997 0.07316,0.77197 0.21949,1.05602c0.05526,0.10726 0.11253,0.18526 0.17181,0.23401c0.02429,0.01997 0.04053,0.02996 0.0487,0.02996c0.00817,0 0.0244,-0.00999 0.0487,-0.02996c0.05929,-0.04875 0.11656,-0.12675 0.17182,-0.23401c0.14632,-0.28405 0.21948,-0.63605 0.21948,-1.05602c0,-0.42355 -0.07304,-0.77658 -0.21913,-1.05909c-0.05483,-0.10602 -0.11168,-0.18303 -0.17056,-0.23104c-0.02443,-0.01991 -0.0412,-0.02987 -0.05031,-0.02987zM0.94021,5.86359c0.24643,0 0.47383,0.08494 0.6822,0.25481c0.1662,0.1355 0.30851,0.31776 0.42694,0.54677c0.22057,0.42656 0.33086,0.9327 0.33086,1.51842c0,0.58159 -0.11017,1.08625 -0.33051,1.51397c-0.11825,0.22956 -0.26015,0.41237 -0.42568,0.54844c-0.20882,0.17173 -0.43676,0.2576 -0.68381,0.2576c-0.24705,0 -0.47499,-0.08587 -0.6838,-0.2576c-0.16554,-0.13607 -0.30743,-0.31888 -0.42568,-0.54844c-0.22034,-0.42772 -0.33051,-0.93238 -0.33051,-1.51397c0,-0.58572 0.11029,-1.09186 0.33087,-1.51842c0.11843,-0.22901 0.26074,-0.41127 0.42694,-0.54677c0.20837,-0.16987 0.43576,-0.25481 0.68219,-0.25481z"></path><path id="矩形 2" fill-rule="evenodd" style="fill:#EEEEEE" opacity="1" d="M5.62512 6.36371L9.37513 6.36371L9.37513 1.36371L5.62512 1.36371L5.62512 6.36371Z"></path><path  id="矩形 2" style="fill:#000000; opacity:1;" d="M5.12512,6.36371v-5.5h4.75001v5.5h-1.00001v-4.5h-2.75v4.5z"></path><path id="圆形 2" fill-rule="evenodd" style="fill:#EEEEEE" opacity="1" d="M9.37509 1.36C9.37509 0.61 8.53509 -1.21528e-08 7.50509 -2.70544e-08C6.46509 -4.21008e-08 5.62509 0.61 5.62509 1.36C5.62509 2.12 6.46509 2.73 7.50509 2.73C8.53509 2.73 9.37509 2.12 9.37509 1.36Z"></path><path  id="圆形 2" style="fill:#000000; opacity:1;" d="M8.87509,1.36c0,-0.20511 -0.11425,-0.39071 -0.34275,-0.55682c-0.27805,-0.20212 -0.62046,-0.30318 -1.02725,-0.30318c-0.4116,0 -0.75717,0.10123 -1.03671,0.3037c-0.22886,0.16576 -0.34329,0.35119 -0.34329,0.5563c0,0.21011 0.11475,0.39869 0.34426,0.56576c0.27863,0.20283 0.62388,0.30424 1.03574,0.30424c0.40705,0 0.74915,-0.10124 1.02628,-0.30372c0.22915,-0.16742 0.34372,-0.35618 0.34372,-0.56628zM9.87509,1.36c0,0.27595 -0.07149,0.5376 -0.21447,0.78493c-0.12995,0.22478 -0.30972,0.42104 -0.53931,0.58879c-0.45283,0.33085 -0.99157,0.49628 -1.61622,0.49628c-0.62881,0 -1.17023,-0.16525 -1.62426,-0.49576c-0.23034,-0.16767 -0.41065,-0.36401 -0.54094,-0.589c-0.1432,-0.24731 -0.2148,-0.50905 -0.2148,-0.78524c0,-0.27445 0.07191,-0.53481 0.21574,-0.78107c0.13046,-0.22337 0.31078,-0.41841 0.54097,-0.58512c0.45453,-0.3292 0.99563,-0.4938 1.62329,-0.4938c0.6235,0 1.16192,0.16477 1.61525,0.49432c0.22944,0.16679 0.40922,0.36176 0.53934,0.58492c0.14361,0.24628 0.21541,0.50654 0.21541,0.78076z"></path></g><path  id="路径 1" style="fill:#FFFFFF; opacity:1;" d="M18.7566,13.5102c-1.95827,1.3336 -3.4803,2.8296 -4.5661,4.488c-1.12707,1.72133 -1.6906,3.4886 -1.6906,5.3018c0,0.0656 -0.0064,0.1306 -0.0192,0.195c-0.0128,0.0644 -0.03177,0.12693 -0.0569,0.1876c-0.02513,0.06067 -0.05593,0.1183 -0.0924,0.1729c-0.03647,0.0546 -0.07793,0.10513 -0.1244,0.1516c-0.0464,0.0464 -0.0969,0.08783 -0.1515,0.1243c-0.0546,0.03647 -0.11223,0.06727 -0.1729,0.0924c-0.06067,0.02513 -0.1232,0.0441 -0.1876,0.0569c-0.0644,0.01287 -0.12943,0.0193 -0.1951,0.0193c-0.06567,0 -0.1307,-0.00643 -0.1951,-0.0193c-0.0644,-0.0128 -0.1269,-0.03177 -0.1875,-0.0569c-0.06067,-0.02513 -0.1183,-0.05593 -0.1729,-0.0924c-0.0546,-0.03647 -0.10513,-0.0779 -0.1516,-0.1243c-0.0464,-0.04647 -0.08783,-0.097 -0.1243,-0.1516c-0.03653,-0.0546 -0.06733,-0.11223 -0.0924,-0.1729c-0.02513,-0.06067 -0.0441,-0.1232 -0.0569,-0.1876c-0.01287,-0.0644 -0.0193,-0.1294 -0.0193,-0.195v-0.0021c0.00047,-2.21013 0.6729,-4.3419 2.0173,-6.3953c1.23133,-1.88053 2.93587,-3.56233 5.1136,-5.0454c2.09413,-1.42615 4.4308,-2.5386 7.01,-3.33733c2.6262,-0.81327 5.2459,-1.21991 7.8591,-1.21991c0.06567,0 0.1307,0.0064 0.1951,0.01921c0.0644,0.01281 0.12693,0.03178 0.1876,0.05691c0.06067,0.02513 0.1183,0.05593 0.1729,0.09241c0.0546,0.03648 0.1051,0.07793 0.1515,0.12436c0.04647,0.04643 0.08793,0.09694 0.1244,0.15154c0.03647,0.05459 0.06727,0.11222 0.0924,0.17288c0.02513,0.06067 0.0441,0.1232 0.0569,0.1876c0.0128,0.0644 0.0192,0.12943 0.0192,0.19509c0,0.06566 -0.0064,0.13069 -0.0192,0.19509c-0.0128,0.0644 -0.03177,0.12693 -0.0569,0.18759c-0.02513,0.06066 -0.05593,0.11829 -0.0924,0.17289c-0.03647,0.05459 -0.07793,0.1051 -0.1244,0.15153c-0.0464,0.04643 -0.0969,0.08789 -0.1515,0.12437c-0.0546,0.03647 -0.11223,0.06728 -0.1729,0.09241c-0.06067,0.02513 -0.1232,0.04409 -0.1876,0.0569c-0.0644,0.01281 -0.12943,0.01922 -0.1951,0.01922c-2.41147,0 -4.83393,0.37681 -7.2674,1.13044c-2.38833,0.7396 -4.54697,1.7662 -6.4759,3.0798z"></path></g><path id="圆形 1" fill-rule="evenodd" style="fill:#FFFFFF" opacity="1" d="M135.5 106C134.67 106 134 107.34 134 109C134 110.66 134.67 112 135.5 112C136.33 112 137 110.66 137 109C137 107.34 136.33 106 135.5 106Z"></path><path id="圆形 1" fill-rule="evenodd" style="fill:#FFFFFF" opacity="1" d="M141.5 97C140.67 97 140 97.9 140 99C140 100.1 140.67 101 141.5 101C142.33 101 143 100.1 143 99C143 97.9 142.33 97 141.5 97Z"></path><path id="圆形 1" fill-rule="evenodd" style="fill:#FFFFFF" opacity="1" d="M105 115C104.45 115 104 115.67 104 116.5C104 117.33 104.45 118 105 118C105.55 118 106 117.33 106 116.5C106 115.67 105.55 115 105 115Z"></path><path id="圆形 1" fill-rule="evenodd" style="fill:#FFFFFF" opacity="1" d="M111 92C110.45 92 110 92.67 110 93.5C110 94.33 110.45 95 111 95C111.55 95 112 94.33 112 93.5C112 92.67 111.55 92 111 92Z"></path><path id="圆形 1" fill-rule="evenodd" style="fill:#FFFFFF" opacity="1" d="M97.5 84C96.67 84 96 84.9 96 86C96 87.1 96.67 88 97.5 88C98.33 88 99 87.1 99 86C99 84.9 98.33 84 97.5 84Z"></path><path id="圆形 1" fill-rule="evenodd" style="fill:#FFFFFF" opacity="1" d="M112 105C111.45 105 111 105.67 111 106.5C111 107.33 111.45 108 112 108C112.55 108 113 107.33 113 106.5C113 105.67 112.55 105 112 105Z"></path><path id="圆形 1" fill-rule="evenodd" style="fill:#FFFFFF" opacity="1" d="M95 106C94.45 106 94 106.67 94 107.5C94 108.33 94.45 109 95 109C95.55 109 96 108.33 96 107.5C96 106.67 95.55 106 95 106Z"></path><path id="圆形 1" fill-rule="evenodd" style="fill:#FFFFFF" opacity="1" d="M99 95C98.45 95 98 95.67 98 96.5C98 97.33 98.45 98 99 98C99.55 98 100 97.33 100 96.5C100 95.67 99.55 95 99 95Z"></path><path id="圆形 1" fill-rule="evenodd" style="fill:#FFFFFF" opacity="1" d="M145 86C144.45 86 144 86.67 144 87.5C144 88.33 144.45 89 145 89C145.55 89 146 88.33 146 87.5C146 86.67 145.55 86 145 86Z"></path><path id="圆形 1" fill-rule="evenodd" style="fill:#FFFFFF" opacity="1" d="M133.5 91C132.67 91 132 91.9 132 93C132 94.1 132.67 95 133.5 95C134.33 95 135 94.1 135 93C135 91.9 134.33 91 133.5 91Z"></path><path id="圆形 1" fill-rule="evenodd" style="fill:#FFFFFF" opacity="1" d="M79.5 101C78.67 101 78 101.9 78 103C78 104.1 78.67 105 79.5 105C80.33 105 81 104.1 81 103C81 101.9 80.33 101 79.5 101Z"></path><path id="圆形 1" fill-rule="evenodd" style="fill:#FFFFFF" opacity="1" d="M60 97C59.45 97 59 97.67 59 98.5C59 99.33 59.45 100 60 100C60.55 100 61 99.33 61 98.5C61 97.67 60.55 97 60 97Z"></path><path id="圆形 1" fill-rule="evenodd" style="fill:#FFFFFF" opacity="1" d="M44.5 78C43.67 78 43 78.9 43 80C43 81.1 43.67 82 44.5 82C45.33 82 46 81.1 46 80C46 78.9 45.33 78 44.5 78Z"></path><path id="圆形 1" fill-rule="evenodd" style="fill:#FFFFFF" opacity="1" d="M60 113C59.45 113 59 113.67 59 114.5C59 115.33 59.45 116 60 116C60.55 116 61 115.33 61 114.5C61 113.67 60.55 113 60 113Z"></path><path id="圆形 1" fill-rule="evenodd" style="fill:#FFFFFF" opacity="1" d="M44 103C43.45 103 43 103.67 43 104.5C43 105.33 43.45 106 44 106C44.55 106 45 105.33 45 104.5C45 103.67 44.55 103 44 103Z"></path><path id="圆形 1" fill-rule="evenodd" style="fill:#FFFFFF" opacity="1" d="M41 112C40.45 112 40 112.67 40 113.5C40 114.33 40.45 115 41 115C41.55 115 42 114.33 42 113.5C42 112.67 41.55 112 41 112Z"></path><path id="圆形 1" fill-rule="evenodd" style="fill:#FFFFFF" opacity="1" d="M54 88C53.45 88 53 88.67 53 89.5C53 90.33 53.45 91 54 91C54.55 91 55 90.33 55 89.5C55 88.67 54.55 88 54 88Z"></path><path id="圆形 1" fill-rule="evenodd" style="fill:#FFFFFF" opacity="1" d="M78 88C77.45 88 77 88.67 77 89.5C77 90.33 77.45 91 78 91C78.55 91 79 90.33 79 89.5C79 88.67 78.55 88 78 88Z"></path><path id="圆形 1" fill-rule="evenodd" style="fill:#FFFFFF" opacity="1" d="M78 112C77.45 112 77 112.67 77 113.5C77 114.33 77.45 115 78 115C78.55 115 79 114.33 79 113.5C79 112.67 78.55 112 78 112Z"></path><path id="圆形 1" fill-rule="evenodd" style="fill:#FFFFFF" opacity="1" d="M34 92C33.45 92 33 92.67 33 93.5C33 94.33 33.45 95 34 95C34.55 95 35 94.33 35 93.5C35 92.67 34.55 92 34 92Z"></path><path id="圆形 1" fill-rule="evenodd" style="fill:#FFFFFF" opacity="1" d="M56 54C55.45 54 55 54.67 55 55.5C55 56.33 55.45 57 56 57C56.55 57 57 56.33 57 55.5C57 54.67 56.55 54 56 54Z"></path><path id="圆形 1" fill-rule="evenodd" style="fill:#FFFFFF" opacity="1" d="M40.5 35C39.67 35 39 35.9 39 37C39 38.1 39.67 39 40.5 39C41.33 39 42 38.1 42 37C42 35.9 41.33 35 40.5 35Z"></path><path id="圆形 1" fill-rule="evenodd" style="fill:#FFFFFF" opacity="1" d="M40 60C39.45 60 39 60.67 39 61.5C39 62.33 39.45 63 40 63C40.55 63 41 62.33 41 61.5C41 60.67 40.55 60 40 60Z"></path><path id="圆形 1" fill-rule="evenodd" style="fill:#FFFFFF" opacity="1" d="M50 45C49.45 45 49 45.67 49 46.5C49 47.33 49.45 48 50 48C50.55 48 51 47.33 51 46.5C51 45.67 50.55 45 50 45Z"></path><path id="圆形 1" fill-rule="evenodd" style="fill:#FFFFFF" opacity="1" d="M30 49C29.45 49 29 49.67 29 50.5C29 51.33 29.45 52 30 52C30.55 52 31 51.33 31 50.5C31 49.67 30.55 49 30 49Z"></path><path id="圆形 1" fill-rule="evenodd" style="fill:#FFFFFF" opacity="1" d="M137 80C136.45 80 136 80.67 136 81.5C136 82.33 136.45 83 137 83C137.55 83 138 82.33 138 81.5C138 80.67 137.55 80 137 80Z"></path></g><defs><linearGradient id="linear_0" x1="0.499816907" y1="56.49170215999868" x2="23.499816907" y2="56.49170211246225" gradientUnits="userSpaceOnUse"><stop offset="0.1945" stop-color="#006FFF" stop-opacity="1" /><stop offset="0.8009" stop-color="#CCCCCC" stop-opacity="0.7" /></linearGradient><linearGradient id="linear_1" x1="0.4999694824" y1="33.884903380701815" x2="23.4999694824" y2="33.884903333165376" gradientUnits="userSpaceOnUse"><stop offset="0.1945" stop-color="#006FFF" stop-opacity="1" /><stop offset="0.8009" stop-color="#CCCCCC" stop-opacity="0.7" /></linearGradient><linearGradient id="linear_2" x1="0.5000913548999982" y1="12.280812159998687" x2="23.500091354899997" y2="12.28081211246225" gradientUnits="userSpaceOnUse"><stop offset="0.1945" stop-color="#006FFF" stop-opacity="1" /><stop offset="0.8009" stop-color="#CCCCCC" stop-opacity="0.7" /></linearGradient><linearGradient id="linear_3" x1="10.35921860107422" y1="11.94740176545243" x2="13.644939426269529" y2="11.947401896656945" gradientUnits="userSpaceOnUse"><stop offset="0.1945" stop-color="#006FFF" stop-opacity="1" /><stop offset="0.8009" stop-color="#CCCCCC" stop-opacity="0.7" /></linearGradient><linearGradient id="linear_4" x1="10.359278601074221" y1="7.079292680979773" x2="13.64499942626953" y2="7.07929281218429" gradientUnits="userSpaceOnUse"><stop offset="0.1945" stop-color="#006FFF" stop-opacity="1" /><stop offset="0.8009" stop-color="#CCCCCC" stop-opacity="0.7" /></linearGradient><linearGradient id="linear_5" x1="10.359278601074221" y1="1.9301223755735215" x2="13.64499942626953" y2="1.930122506778038" gradientUnits="userSpaceOnUse"><stop offset="0.1945" stop-color="#006FFF" stop-opacity="1" /><stop offset="0.8009" stop-color="#CCCCCC" stop-opacity="0.7" /></linearGradient><linearGradient id="linear_6" x1="0.499847425" y1="56.491402159998685" x2="23.499847425" y2="56.491402112462254" gradientUnits="userSpaceOnUse"><stop offset="0.2037" stop-color="#CCCCCC" stop-opacity="0.7" /><stop offset="0.787" stop-color="#0F76FB" stop-opacity="0.98" /></linearGradient><linearGradient id="linear_7" x1="0.4999084473" y1="33.88480338070181" x2="23.4999084473" y2="33.88480333316537" gradientUnits="userSpaceOnUse"><stop offset="0.2037" stop-color="#CCCCCC" stop-opacity="0.7" /><stop offset="0.787" stop-color="#0F76FB" stop-opacity="0.98" /></linearGradient><linearGradient id="linear_8" x1="0.4999998021479983" y1="12.280662159998688" x2="23.499999802147997" y2="12.28066211246225" gradientUnits="userSpaceOnUse"><stop offset="0.2037" stop-color="#CCCCCC" stop-opacity="0.7" /><stop offset="0.787" stop-color="#0F76FB" stop-opacity="0.98" /></linearGradient><linearGradient id="linear_9" x1="10.35911860107422" y1="11.94710176545243" x2="13.64483942626953" y2="11.947101896656946" gradientUnits="userSpaceOnUse"><stop offset="0.2037" stop-color="#CCCCCC" stop-opacity="0.7" /><stop offset="0.787" stop-color="#0F76FB" stop-opacity="0.98" /></linearGradient><linearGradient id="linear_10" x1="10.35924860107422" y1="7.079202680979773" x2="13.64496942626953" y2="7.07920281218429" gradientUnits="userSpaceOnUse"><stop offset="0.2037" stop-color="#CCCCCC" stop-opacity="0.7" /><stop offset="0.787" stop-color="#0F76FB" stop-opacity="0.98" /></linearGradient><linearGradient id="linear_11" x1="10.35924860107422" y1="1.9298782345735215" x2="13.64496942626953" y2="1.929878365778038" gradientUnits="userSpaceOnUse"><stop offset="0.2037" stop-color="#CCCCCC" stop-opacity="0.7" /><stop offset="0.787" stop-color="#0F76FB" stop-opacity="0.98" /></linearGradient></defs></svg>