<svg xmlns="http://www.w3.org/2000/svg" xmlns:xlink="http://www.w3.org/1999/xlink" width="211.60690307617188" height="211.14101791381836" viewBox="0 0 211.60690307617188 211.14101791381836" fill="none"><g opacity="1"  transform="translate(209.51773071289062 1.771270751953125)  rotate(0)"><path id="圆形 1" fill-rule="evenodd" style="fill:#77DDFF" opacity="1" d="M-113.892 9.90851C-163.602 9.90851 -203.892 50.1985 -203.892 99.9086C-203.892 149.619 -163.602 189.909 -113.892 189.909C-64.1816 189.909 -23.8916 149.619 -23.8916 99.9086C-23.8916 50.1985 -64.1816 9.90851 -113.892 9.90851Z"></path><g opacity="1"  transform="translate(0.08154296875 76.37373352050781)  rotate(0)"><path id="圆形 3" fill-rule="evenodd" fill="url(#linear_0)" opacity="1" d="M-116.932 18.954C-131.09 13.452 -172.03 26.8421 -177.532 41.0005C-183.034 55.159 -176.019 71.0919 -161.861 76.594C-154.506 79.4518 -144.242 80.0396 -139.208 76.2777C-134.555 72.8074 -130.805 54.6531 -128.16 47.8489C-122.658 33.6904 -102.773 24.456 -116.932 18.954Z"></path><path  id="圆形 3" style="fill:#000000; opacity:1;" d="M-117.294,19.8861c-1.62867,-0.63293 -3.67333,-1.01513 -6.134,-1.1466c-2.38733,-0.12753 -5.072,-0.01417 -8.054,0.3401c-2.90133,0.34473 -5.95533,0.90187 -9.162,1.6714c-3.176,0.76213 -6.34433,1.6947 -9.505,2.7977c-3.19867,1.11647 -6.231,2.3523 -9.097,3.7075c-2.956,1.39793 -5.60267,2.86117 -7.94,4.3897c-2.436,1.593 -4.44567,3.19833 -6.029,4.816c-1.63733,1.67373 -2.76567,3.30737 -3.385,4.9009c-1.30267,3.35113 -1.90133,6.8075 -1.796,10.3691c0.10133,3.44073 0.84867,6.7436 2.242,9.9086c1.39333,3.16487 3.32467,5.94637 5.794,8.3445c2.55667,2.48233 5.51067,4.37463 8.862,5.6769c1.79533,0.69787 3.71533,1.24293 5.76,1.6352c2.07267,0.39773 4.1,0.6048 6.082,0.6212c2.06,0.017 3.92167,-0.1745 5.585,-0.5745c1.736,-0.4174 3.15733,-1.0398 4.264,-1.8672c1.284,-0.95727 2.69033,-3.458 4.219,-7.5022c0.61267,-1.62227 1.27633,-3.5813 1.991,-5.8771c0.42467,-1.3644 1.03133,-3.3971 1.82,-6.0981c0.63933,-2.19147 1.10767,-3.76773 1.405,-4.7288c0.492,-1.59427 0.91867,-2.8555 1.28,-3.7837c0.95467,-2.45747 2.449,-5.0473 4.483,-7.7695c0.78733,-1.0536 1.70767,-2.19807 2.761,-3.4334c0.622,-0.72953 1.54467,-1.78037 2.768,-3.1525c0.95733,-1.07373 1.655,-1.86463 2.093,-2.3727c0.716,-0.8312 1.31167,-1.55823 1.787,-2.1811c1.11533,-1.46293 1.81567,-2.6851 2.101,-3.6665c0.14533,-0.5002 0.19167,-0.95577 0.139,-1.3667c-0.05267,-0.4136 -0.21067,-0.80537 -0.474,-1.1753c-0.644,-0.90567 -1.93067,-1.7333 -3.86,-2.4829zM-116.57,18.0219c2.30133,0.8942 3.89,1.9567 4.766,3.1875c0.882,1.2402 1.09067,2.66023 0.626,4.2601c-0.194,0.66673 -0.51167,1.38103 -0.953,2.1429c-0.382,0.66013 -0.875,1.3861 -1.479,2.1779c-0.49933,0.65447 -1.12,1.41237 -1.862,2.2737c-0.44467,0.51667 -1.14967,1.3161 -2.115,2.3983c-1.21333,1.36107 -2.12633,2.4008 -2.739,3.1192c-1.02533,1.20267 -1.919,2.31363 -2.681,3.3329c-1.92533,2.57647 -3.33233,5.0087 -4.221,7.2967c-0.344,0.88407 -0.75533,2.10063 -1.234,3.6497c-0.29333,0.951 -0.75833,2.51723 -1.395,4.6987c-0.792,2.71227 -1.402,4.75633 -1.83,6.1322c-0.72667,2.3338 -1.40367,4.3304 -2.031,5.9898c-0.77267,2.0444 -1.523,3.72427 -2.251,5.0396c-0.87267,1.57673 -1.75267,2.69597 -2.64,3.3577c-1.32733,0.99153 -2.992,1.72803 -4.994,2.2095c-1.82267,0.43827 -3.846,0.64823 -6.07,0.6299c-2.10333,-0.01733 -4.25067,-0.2363 -6.442,-0.6569c-2.16333,-0.41513 -4.19933,-0.99353 -6.108,-1.7352c-3.60333,-1.4002 -6.78,-3.43563 -9.53,-6.1063c-1.322,-1.2836 -2.509,-2.68457 -3.561,-4.2029c-1.042,-1.50367 -1.932,-3.09383 -2.67,-4.7705c-0.73867,-1.67667 -1.31067,-3.407 -1.716,-5.191c-0.40933,-1.8014 -0.641,-3.62293 -0.695,-5.4646c-0.11333,-3.83187 0.53033,-7.54937 1.931,-11.1525c0.718,-1.84793 1.99133,-3.70633 3.82,-5.5752c1.68467,-1.72153 3.80567,-3.41857 6.363,-5.0911c2.41467,-1.57873 5.14133,-3.08667 8.18,-4.5238c2.92933,-1.3854 6.027,-2.648 9.293,-3.7878c3.224,-1.12507 6.45633,-2.07647 9.697,-2.8542c3.28267,-0.7878 6.41367,-1.35867 9.393,-1.7126c3.09533,-0.36787 5.894,-0.48497 8.396,-0.3513c2.674,0.14287 4.92467,0.5694 6.752,1.2796z"></path><path id="圆形 3" fill-rule="evenodd" fill="url(#linear_1)" opacity="1" d="M-113.504 26.701C-111.19 41.7137 -79.1238 70.4738 -64.1112 68.1595C-49.0985 65.8452 -38.8078 51.8033 -41.1221 36.7907C-42.3242 28.9928 -46.9473 19.81 -52.7224 17.3309C-58.0542 15.0365 -75.6516 20.8657 -82.8663 21.9779C-97.879 24.2922 -115.819 11.6884 -113.504 26.701Z"></path><path  id="圆形 3" style="fill:#000000; opacity:1;" d="M-112.516,26.5486c0.266,1.727 0.95733,3.68897 2.074,5.8859c1.08333,2.13133 2.524,4.39953 4.322,6.8046c1.74933,2.34047 3.75867,4.70677 6.028,7.0989c2.24793,2.36927 4.6397,4.64673 7.1753,6.8324c2.56647,2.21233 5.15287,4.22053 7.7592,6.0246c2.68873,1.86107 5.27933,3.42163 7.7718,4.6817c2.59767,1.31327 4.9927,2.2509 7.1851,2.8129c2.2684,0.58153 4.24743,0.74207 5.9371,0.4816c3.55333,-0.5478 6.846,-1.75753 9.878,-3.6292c2.92907,-1.80813 5.4157,-4.10687 7.4599,-6.8962c2.04413,-2.78927 3.48723,-5.85273 4.3293,-9.1904c0.87167,-3.45487 1.03363,-6.959 0.4859,-10.5124c-0.2936,-1.90413 -0.7816,-3.83953 -1.464,-5.8062c-0.69187,-1.9938 -1.52623,-3.85303 -2.5031,-5.5777c-1.01527,-1.79253 -2.112,-3.3091 -3.2902,-4.5497c-1.22927,-1.29447 -2.479,-2.21433 -3.7492,-2.7596c-1.4708,-0.63287 -4.3395,-0.60013 -8.6061,0.0982c-1.71153,0.28013 -3.74007,0.6847 -6.0856,1.2137c-1.39393,0.3144 -3.45757,0.8055 -6.1909,1.4733c-2.21767,0.54187 -3.8169,0.92447 -4.7977,1.1478c-1.627,0.37053 -2.93257,0.63167 -3.9167,0.7834c-2.60573,0.40167 -5.59587,0.40227 -8.9704,0.0018c-1.30613,-0.155 -2.75747,-0.37983 -4.354,-0.6745c-0.94287,-0.17393 -2.3141,-0.4476 -4.1137,-0.821c-1.40867,-0.29227 -2.44267,-0.5009 -3.102,-0.6259c-1.07733,-0.20453 -2.00467,-0.35677 -2.782,-0.4567c-1.82467,-0.23467 -3.23333,-0.23023 -4.226,0.0133c-0.506,0.12413 -0.92367,0.3117 -1.253,0.5627c-0.332,0.2526 -0.59233,0.58537 -0.781,0.9983c-0.462,1.01093 -0.53533,2.53907 -0.22,4.5844zM-114.493,26.8534c-0.376,-2.43987 -0.25,-4.34673 0.378,-5.7206c0.63267,-1.38433 1.75833,-2.275 3.377,-2.672c0.674,-0.16547 1.45133,-0.24763 2.332,-0.2465c0.76267,0.00093 1.63767,0.0649 2.625,0.1919c0.81667,0.105 1.78333,0.2635 2.9,0.4755c0.67,0.12713 1.71493,0.33797 3.1348,0.6325c1.78547,0.3704 3.1424,0.64123 4.0708,0.8125c1.55433,0.28687 2.96327,0.50527 4.2268,0.6552c3.19393,0.37907 6.0039,0.38163 8.4299,0.0077c0.93747,-0.14453 2.1966,-0.39683 3.7774,-0.7569c0.97053,-0.221 2.55957,-0.60117 4.7671,-1.1405c2.74473,-0.6706 4.81993,-1.16443 6.2256,-1.4815c2.38433,-0.5378 4.45183,-0.94997 6.2025,-1.2365c2.15687,-0.353 3.9869,-0.543 5.4901,-0.57c1.802,-0.03233 3.21133,0.17027 4.228,0.6078c1.52227,0.65347 2.99247,1.72687 4.4106,3.2202c1.2908,1.3592 2.48417,3.00627 3.5801,4.9412c1.03667,1.8302 1.9208,3.79947 2.6524,5.9078c0.72207,2.08093 1.2391,4.1333 1.5511,6.1571c0.589,3.82053 0.4146,7.58933 -0.5232,11.3064c-0.45073,1.78647 -1.0705,3.51493 -1.8593,5.1854c-0.78113,1.65433 -1.71317,3.22033 -2.7961,4.698c-1.08293,1.47767 -2.29553,2.83807 -3.6378,4.0812c-1.35533,1.2552 -2.8169,2.3667 -4.3847,3.3345c-3.26207,2.01373 -6.80337,3.31507 -10.6239,3.904c-1.9594,0.30207 -4.20553,0.12847 -6.7384,-0.5208c-2.3332,-0.59813 -4.86347,-1.5866 -7.5908,-2.9654c-2.57433,-1.30147 -5.2436,-2.90883 -8.0078,-4.8221c-2.66447,-1.84433 -5.3067,-3.89573 -7.9267,-6.1542c-2.58627,-2.22933 -5.02643,-4.5529 -7.3205,-6.9707c-2.32333,-2.44893 -4.383,-4.87497 -6.179,-7.2781c-1.86667,-2.497 -3.36767,-4.86227 -4.503,-7.0958c-1.21333,-2.38707 -1.96933,-4.5495 -2.268,-6.4873z"></path><path id="圆形 3" fill-rule="evenodd" fill="url(#linear_2)" opacity="1" d="M-108.698 18.7202C-96.8541 9.20963 -87.9802 -32.9407 -97.4908 -44.7849C-107.001 -56.6291 -124.307 -58.5202 -136.152 -49.0096C-142.304 -44.0696 -147.945 -35.4745 -147.204 -29.2335C-146.525 -23.4688 -132.678 -11.1436 -128.108 -5.45157C-118.597 6.39262 -120.542 28.2309 -108.698 18.7202Z"></path><path  id="圆形 3" style="fill:#000000; opacity:1;" d="M-109.324,17.9405c1.362,-1.09407 2.71533,-2.67383 4.06,-4.7393c1.304,-2.00373 2.548,-4.38529 3.732,-7.14466c1.15233,-2.68521 2.1969,-5.60865 3.1337,-8.77031c0.92787,-3.13141 1.70433,-6.34148 2.3294,-9.63023c0.63267,-3.32873 1.0786,-6.57273 1.3378,-9.732c0.26733,-3.259 0.32353,-6.2828 0.1686,-9.0714c-0.16153,-2.90627 -0.54703,-5.44927 -1.1565,-7.629c-0.6306,-2.25527 -1.4811,-4.0494 -2.5515,-5.3824c-2.251,-2.8034 -4.94517,-5.05007 -8.0825,-6.74c-3.03,-1.6326 -6.264,-2.63673 -9.702,-3.0124c-3.43733,-0.37567 -6.812,-0.0937 -10.124,0.8459c-3.42733,0.97253 -6.54267,2.58433 -9.346,4.8354c-1.50267,1.20633 -2.935,2.59667 -4.297,4.171c-1.38067,1.59607 -2.57367,3.24827 -3.579,4.9566c-1.04467,1.77553 -1.80967,3.4836 -2.295,5.1242c-0.506,1.71187 -0.67767,3.2541 -0.515,4.6267c0.18733,1.59027 1.65,4.0583 4.388,7.4041c1.09867,1.3422 2.46333,2.8967 4.094,4.6635c0.96933,1.04993 2.42633,2.59153 4.371,4.6248c1.578,1.6496 2.709,2.84326 3.393,3.58098c1.13467,1.22375 2.01367,2.22386 2.637,3.00033c1.65067,2.05578 3.14633,4.64501 4.487,7.76769c0.51867,1.20863 1.04967,2.57795 1.593,4.10794c0.32067,0.90352 0.76933,2.22801 1.346,3.97348c0.45133,1.36605 0.78733,2.36561 1.008,2.99868c0.362,1.03567 0.694,1.9149 0.996,2.6377c0.70933,1.6976 1.41733,2.91537 2.124,3.6533c0.36067,0.37607 0.732,0.64407 1.114,0.804c0.38467,0.161 0.803,0.21997 1.255,0.1769c1.10667,-0.10527 2.467,-0.80577 4.081,-2.1015zM-108.072,19.5c-1.92467,1.5456 -3.639,2.38997 -5.143,2.5331c-1.51533,0.14413 -2.84967,-0.38523 -4.003,-1.5881c-0.48,-0.50133 -0.93967,-1.1335 -1.379,-1.8965c-0.38067,-0.66107 -0.763,-1.45097 -1.147,-2.3697c-0.31667,-0.75947 -0.66267,-1.67587 -1.038,-2.7492c-0.22467,-0.64387 -0.56433,-1.65417 -1.019,-3.0309c-0.572,-1.73145 -1.016,-3.04201 -1.332,-3.93168c-0.52867,-1.48951 -1.044,-2.81889 -1.546,-3.98812c-1.26867,-2.95559 -2.67133,-5.39038 -4.208,-7.30437c-0.594,-0.73957 -1.44233,-1.70387 -2.545,-2.8929c-0.67667,-0.72997 -1.80033,-1.91602 -3.371,-3.55813c-1.95333,-2.04167 -3.41867,-3.59193 -4.396,-4.6508c-1.658,-1.796 -3.04867,-3.38043 -4.172,-4.7533c-1.384,-1.6914 -2.46333,-3.18127 -3.238,-4.4696c-0.92933,-1.5444 -1.45867,-2.86623 -1.588,-3.9655c-0.19533,-1.645 -0.001,-3.4549 0.583,-5.4297c0.532,-1.79753 1.362,-3.65457 2.49,-5.5711c1.06667,-1.81287 2.33,-3.56317 3.79,-5.2509c1.44067,-1.66587 2.95933,-3.13983 4.556,-4.4219c3.01467,-2.42033 6.366,-4.1537 10.054,-5.2001c1.772,-0.50287 3.57867,-0.83037 5.42,-0.9825c1.82333,-0.15067 3.64567,-0.1265 5.467,0.0725c1.82067,0.199 3.605,0.56893 5.353,1.1098c1.76467,0.54613 3.458,1.25613 5.08,2.13c3.37467,1.8182 6.27233,4.2344 8.693,7.2486c1.24127,1.54587 2.21397,3.5779 2.9181,6.0961c0.6486,2.31967 1.0577,5.00517 1.2273,8.0565c0.16007,2.8802 0.10267,5.99553 -0.1722,9.346c-0.26493,3.22967 -0.72033,6.54363 -1.3662,9.9419c-0.6376,3.35443 -1.42983,6.6294 -2.3767,9.82493c-0.95907,3.23671 -2.03013,6.23363 -3.2132,8.99076c-1.2294,2.86481 -2.52743,5.34714 -3.8941,7.44701c-1.46067,2.24427 -2.95533,3.9802 -4.484,5.2078z"></path><path id="圆形 2" fill-rule="evenodd" style="fill:#1CCEFF" opacity="1" d="M-116.279 6.59955C-124.536 7.21108 -130.742 14.409 -130.13 22.6664C-129.519 30.9238 -122.321 37.1291 -114.063 36.5176C-105.806 35.9061 -99.6006 28.7081 -100.212 20.4507C-100.824 12.1933 -108.022 5.98802 -116.279 6.59955Z"></path><path  id="圆形 2" style="fill:#000000; opacity:1;" d="M-116.205,7.59682c-1.89333,0.14019 -3.677,0.64005 -5.351,1.4996c-1.618,0.83045 -3.02367,1.93788 -4.217,3.32228c-1.19333,1.38447 -2.08167,2.9379 -2.665,4.6603c-0.60333,1.7828 -0.835,3.62067 -0.695,5.5136c0.14,1.89293 0.64,3.6766 1.5,5.351c0.83,1.61773 1.93733,3.02337 3.322,4.2169c1.38467,1.19347 2.938,2.08177 4.66,2.6649c1.78267,0.60347 3.62067,0.8351 5.514,0.6949c1.89267,-0.14013 3.67633,-0.64 5.351,-1.4996c1.618,-0.83047 3.02367,-1.9379 4.217,-3.3223c1.19333,-1.3844 2.08167,-2.93783 2.665,-4.6603c0.60333,-1.78273 0.835,-3.62057 0.695,-5.5135c-0.14067,-1.89293 -0.64067,-3.6766 -1.5,-5.351c-0.83067,-1.6178 -1.938,-3.02343 -3.322,-4.2169c-1.38467,-1.19349 -2.93833,-2.08179 -4.661,-2.66489c-1.78267,-0.60351 -3.62033,-0.83518 -5.513,-0.69499zM-116.353,5.60228c2.16267,-0.16017 4.26367,0.10488 6.303,0.79514c1.96867,0.66645 3.74367,1.68127 5.325,3.04448c1.58133,1.3632 2.84633,2.9693 3.795,4.8183c0.98327,1.91507 1.555,3.95397 1.7152,6.1167c0.16013,2.16267 -0.10493,4.2635 -0.7952,6.3025c-0.66667,1.96867 -1.68133,3.74363 -3.044,5.3249c-1.36333,1.58127 -2.96967,2.8465 -4.819,3.7957c-1.91467,0.98307 -3.95333,1.5547 -6.116,1.7149c-2.16267,0.16013 -4.26367,-0.10493 -6.303,-0.7952c-1.96867,-0.6664 -3.74367,-1.6812 -5.325,-3.0444c-1.58133,-1.3632 -2.84667,-2.96933 -3.796,-4.8184c-0.98267,-1.91507 -1.554,-3.95393 -1.714,-6.1166c-0.16067,-2.16273 0.10433,-4.2636 0.795,-6.3026c0.666,-1.9686 1.68067,-3.74357 3.044,-5.3249c1.36333,-1.58125 2.96967,-2.84646 4.819,-3.79563c1.91467,-0.98309 3.95333,-1.55472 6.116,-1.71489z"></path></g></g><defs><linearGradient id="linear_0" x1="-139.6861189946153" y1="61.6132883201304" x2="-152.36365461272524" y2="94.23659426314535" gradientUnits="userSpaceOnUse"><stop offset="0" stop-color="#00F2FE" stop-opacity="1" /><stop offset="0.7685" stop-color="#4A99E8" stop-opacity="1" /></linearGradient><linearGradient id="linear_1" x1="-73.76596966105527" y1="50.576958771444986" x2="-39.174587932257225" y2="45.244388088127494" gradientUnits="userSpaceOnUse"><stop offset="0" stop-color="#00F2FE" stop-opacity="1" /><stop offset="0.7685" stop-color="#4A99E8" stop-opacity="1" /></linearGradient><linearGradient id="linear_2" x1="-102.40944897413726" y1="-9.075803939625288" x2="-124.32329184950815" y2="-36.366525630953944" gradientUnits="userSpaceOnUse"><stop offset="0" stop-color="#00F2FE" stop-opacity="1" /><stop offset="0.7685" stop-color="#4A99E8" stop-opacity="1" /></linearGradient></defs></svg>