<svg xmlns="http://www.w3.org/2000/svg" xmlns:xlink="http://www.w3.org/1999/xlink" width="212.36737060546875" height="212.36736297607422" viewBox="0 0 212.36737060546875 212.36736297607422" fill="none"><g opacity="1"  transform="translate(0.00030517578125 0)  rotate(0)"><g opacity="1"  transform="translate(212.3408203125 0)  rotate(0)"><path id="圆形 1" fill-rule="evenodd" style="fill:#77DDFF" opacity="1" d="M-194.344 88.2085C-204.272 136.917 -172.841 184.442 -124.133 194.37C-75.4242 204.299 -27.8992 172.867 -17.9709 124.159C-8.04259 75.4504 -39.4739 27.9253 -88.1824 17.9971C-136.891 8.06877 -184.416 39.5001 -194.344 88.2085Z"></path><g opacity="1"  transform="translate(-17.711151123046875 29.971946716308594)  rotate(0)"><path id="圆形 3" fill-rule="evenodd" fill="url(#linear_0)" opacity="1" d="M-91.7793 74.8918C-106.792 77.2079 -135.548 109.278 -133.232 124.29C-130.915 139.302 -116.872 149.591 -101.86 147.275C-94.0624 146.072 -84.8801 141.448 -82.4018 135.672C-80.108 130.34 -85.9393 112.744 -87.0524 105.529C-89.3686 90.5169 -76.767 72.5756 -91.7793 74.8918Z"></path><path  id="圆形 3" style="fill:#000000; opacity:1;" d="M-91.6268,75.8801c-1.727,0.2664 -3.68887,0.95803 -5.8856,2.0749c-2.13107,1.08347 -4.39893,2.5242 -6.8036,4.3222c-2.34067,1.7496 -4.707,3.75937 -7.099,6.0293c-2.36867,2.24827 -4.64567,4.6403 -6.831,7.1761c-2.212,2.56673 -4.22,5.15353 -6.024,7.7604c-1.86067,2.68867 -3.42067,5.27933 -4.68,7.772c-1.31333,2.598 -2.251,4.993 -2.813,7.185c-0.58067,2.26867 -0.74067,4.248 -0.48,5.938c0.548,3.55267 1.758,6.845 3.63,9.877c1.80867,2.92867 4.10767,5.415 6.897,7.459c2.78933,2.044 5.853,3.48667 9.191,4.328c3.45533,0.87133 6.95933,1.033 10.512,0.485c1.9044,-0.294 3.8399,-0.78233 5.8065,-1.465c1.99367,-0.692 3.8528,-1.52667 5.5774,-2.504c1.7924,-1.01533 3.30883,-2.112 4.5493,-3.29c1.29427,-1.22933 2.21397,-2.47933 2.7591,-3.75c0.63273,-1.47067 0.59967,-4.33933 -0.0992,-8.606c-0.28033,-1.71133 -0.68517,-3.73967 -1.2145,-6.085c-0.31453,-1.394 -0.8059,-3.45767 -1.4741,-6.191c-0.54207,-2.218 -0.92487,-3.81733 -1.1484,-4.798c-0.37073,-1.62667 -0.632,-2.932 -0.7838,-3.916c-0.402,-2.606 -0.40297,-5.59623 -0.0029,-8.9707c0.15487,-1.30607 0.3795,-2.75743 0.6739,-4.3541c0.17387,-0.94287 0.4474,-2.31427 0.8206,-4.1142c0.29207,-1.40867 0.50057,-2.44243 0.6255,-3.1013c0.2044,-1.0778 0.3565,-2.0052 0.4563,-2.7822c0.23447,-1.82473 0.22987,-3.2334 -0.0138,-4.226c-0.1242,-0.50593 -0.3118,-0.92367 -0.5628,-1.2532c-0.25273,-0.33173 -0.58557,-0.59193 -0.9985,-0.7806c-1.01093,-0.462 -2.53907,-0.5352 -4.5844,-0.2196zM-91.9318,73.9035c2.4398,-0.37647 4.34667,-0.25077 5.7206,0.3771c1.38447,0.6326 2.2753,1.75797 2.6725,3.3761c0.16547,0.67433 0.2477,1.4517 0.2467,2.3321c-0.00087,0.7628 -0.06473,1.638 -0.1916,2.6256c-0.10487,0.81633 -0.2632,1.783 -0.475,2.9c-0.12713,0.67007 -0.33787,1.71493 -0.6322,3.1346c-0.37013,1.78553 -0.6408,3.1425 -0.812,4.0709c-0.28667,1.5544 -0.5049,2.96337 -0.6547,4.2269c-0.37867,3.19413 -0.38087,6.0042 -0.0066,8.4302c0.1446,0.93733 0.39703,2.19633 0.7573,3.777c0.22113,0.97067 0.6015,2.55967 1.1411,4.767c0.67093,2.74467 1.165,4.81967 1.4822,6.225c0.53813,2.38467 0.95057,4.45233 1.2373,6.203c0.35327,2.15667 0.54347,3.98667 0.5706,5.49c0.0326,1.802 -0.1698,3.21133 -0.6072,4.228c-0.65327,1.522 -1.72647,2.99233 -3.2196,4.411c-1.35913,1.29067 -3.00607,2.48433 -4.9408,3.581c-1.83007,1.03667 -3.7992,1.921 -5.9074,2.653c-2.08093,0.722 -4.1334,1.239 -6.1574,1.551c-3.82,0.59 -7.58867,0.41633 -11.306,-0.521c-1.78667,-0.45067 -3.51533,-1.07033 -5.186,-1.859c-1.654,-0.78067 -3.22,-1.71267 -4.698,-2.796c-1.478,-1.08267 -2.83867,-2.295 -4.082,-3.637c-1.25533,-1.35533 -2.367,-2.81667 -3.335,-4.384c-2.014,-3.262 -3.31567,-6.80333 -3.905,-10.624c-0.302,-1.95933 -0.12867,-4.20533 0.52,-6.738c0.598,-2.33333 1.58633,-4.86367 2.965,-7.591c1.30067,-2.57467 2.90767,-5.244 4.821,-8.008c1.844,-2.66507 3.895,-5.30773 6.153,-7.928c2.22867,-2.58653 4.552,-5.02693 6.97,-7.3212c2.44867,-2.3238 4.87433,-4.38393 7.277,-6.1804c2.49667,-1.86667 4.86173,-3.36773 7.0952,-4.5032c2.38693,-1.21353 4.54927,-1.96977 6.487,-2.2687z"></path><path id="圆形 3" fill-rule="evenodd" fill="url(#linear_1)" opacity="1" d="M-84.9372 79.8877C-75.4251 91.7307 -33.2738 100.599 -21.4308 91.0873C-9.58783 81.5753 -7.69884 64.2691 -17.2109 52.4261C-22.1517 46.2746 -30.7475 40.6347 -36.9883 41.3761C-42.7529 42.0557 -55.0763 55.9041 -60.7678 60.4753C-72.6108 69.9874 -94.4492 68.0447 -84.9372 79.8877Z"></path><path  id="圆形 3" style="fill:#000000; opacity:1;" d="M-84.1575,79.2615c1.0942,1.3624 2.67413,2.7156 4.7398,4.0596c2.00387,1.30393 4.38557,2.54773 7.1451,3.7314c2.68533,1.15193 5.6089,2.1961 8.7707,3.1325c3.13147,0.92747 6.3416,1.70353 9.6304,2.3282c3.32887,0.63227 6.5729,1.0778 9.7321,1.3366c3.25913,0.26693 6.28297,0.32277 9.0715,0.1675c2.90627,-0.16187 5.4492,-0.5477 7.6288,-1.1575c2.2552,-0.63087 4.04923,-1.48157 5.3821,-2.5521c2.80313,-2.2514 5.04947,-4.94567 6.739,-8.0828c1.6322,-3.03067 2.63593,-6.26487 3.0112,-9.7026c0.3752,-3.43767 0.09283,-6.8122 -0.8471,-10.1236c-0.973,-3.4278 -2.58523,-6.54327 -4.8367,-9.3464c-1.20647,-1.50213 -2.59693,-2.93407 -4.1714,-4.2958c-1.59627,-1.38053 -3.24863,-2.5733 -4.9571,-3.5783c-1.77567,-1.04447 -3.48383,-1.80927 -5.1245,-2.2944c-1.71187,-0.5062 -3.2541,-0.67777 -4.6267,-0.5147c-1.5902,0.18747 -4.05807,1.65047 -7.4036,4.389c-1.342,1.09853 -2.8963,2.46337 -4.6629,4.0945c-1.04987,0.96933 -2.59127,2.42663 -4.6242,4.3719c-1.64947,1.57827 -2.843,2.70937 -3.5806,3.3933c-1.2236,1.13453 -2.2236,2.0136 -3,2.6372c-2.0556,1.651 -4.64463,3.1469 -7.7671,4.4877c-1.2086,0.51893 -2.57783,1.05007 -4.1077,1.5934c-0.90353,0.32087 -2.228,0.7697 -3.9734,1.3465c-1.36593,0.4514 -2.36543,0.7877 -2.9985,1.0089c-1.03567,0.36193 -1.91487,0.6939 -2.6376,0.9959c-1.69747,0.7094 -2.91513,1.41773 -3.653,2.125c-0.37607,0.36053 -0.64403,0.7319 -0.8039,1.1141c-0.16087,0.38467 -0.2198,0.803 -0.1768,1.255c0.10547,1.10647 0.80617,2.46647 2.1021,4.08zM-85.7168,80.5139c-1.54593,-1.92467 -2.3905,-3.63893 -2.5337,-5.1428c-0.1444,-1.5152 0.3848,-2.84933 1.5876,-4.0024c0.5012,-0.48053 1.13327,-0.94047 1.8962,-1.3798c0.66107,-0.38067 1.45097,-0.76293 2.3697,-1.1468c0.7594,-0.31733 1.67573,-0.66353 2.749,-1.0386c0.6438,-0.225 1.65403,-0.56497 3.0307,-1.0199c1.7314,-0.57213 3.0419,-1.0162 3.9315,-1.3322c1.48947,-0.52893 2.8188,-1.04443 3.988,-1.5465c2.9554,-1.269 5.39,-2.67207 7.3038,-4.2092c0.73947,-0.59393 1.70367,-1.4421 2.8926,-2.5445c0.72987,-0.67673 1.91577,-1.80063 3.5577,-3.3717c2.0414,-1.9534 3.59147,-3.41887 4.6502,-4.3964c1.7958,-1.65813 3.38007,-3.049 4.7528,-4.1726c1.6912,-1.3844 3.18093,-2.46417 4.4692,-3.2393c1.54427,-0.92913 2.866,-1.4585 3.9652,-1.5881c1.645,-0.19547 3.45493,-0.0012 5.4298,0.5828c1.7976,0.53147 3.65477,1.36093 5.5715,2.4884c1.81293,1.06647 3.56337,2.32963 5.2513,3.7895c1.666,1.44093 3.14017,2.95963 4.4225,4.5561c2.42067,3.01393 4.15443,6.3648 5.2013,10.0526c0.50307,1.7724 0.8308,3.57913 0.9832,5.4202c0.15087,1.82327 0.1269,3.64547 -0.0719,5.4666c-0.1988,1.8212 -0.56853,3.6057 -1.1092,5.3535c-0.54593,1.7648 -1.2557,3.45827 -2.1293,5.0804c-1.8178,3.3752 -4.23363,6.27313 -7.2475,8.6938c-1.54573,1.24147 -3.57763,2.21443 -6.0957,2.9189c-2.3196,0.64887 -5.00507,1.0583 -8.0564,1.2283c-2.88013,0.1604 -5.99543,0.10337 -9.3459,-0.1711c-3.22973,-0.26453 -6.54377,-0.71953 -9.9421,-1.365c-3.35453,-0.63713 -6.6296,-1.42893 -9.8252,-2.3754c-3.2368,-0.95867 -6.23383,-2.02937 -8.9911,-3.2121c-2.86493,-1.22893 -5.34743,-2.52663 -7.4475,-3.8931c-2.2444,-1.4604 -3.9805,-2.95493 -5.2083,-4.4836z"></path><path id="圆形 3" fill-rule="evenodd" fill="url(#linear_2)" opacity="1" d="M-84.7658 70.5717C-79.2655 56.4125 -92.6607 15.474 -106.82 9.97368C-120.979 4.47338 -136.911 11.4906 -142.411 25.6498C-145.268 33.0044 -145.855 43.2686 -142.092 48.3026C-138.622 52.9551 -120.467 56.7033 -113.662 59.3466C-99.5029 64.8469 -90.2661 84.731 -84.7658 70.5717Z"></path><path  id="圆形 3" style="fill:#000000; opacity:1;" d="M-85.6979,70.2097c0.63273,-1.62887 1.01467,-3.67373 1.1458,-6.1346c0.12727,-2.3874 0.01357,-5.07193 -0.3411,-8.0536c-0.34507,-2.90153 -0.90257,-5.9555 -1.6725,-9.1619c-0.76253,-3.17573 -1.6955,-6.34387 -2.7989,-9.5044c-1.11687,-3.199 -2.35307,-6.23117 -3.7086,-9.0965c-1.39833,-2.95593 -2.8619,-5.60257 -4.3907,-7.9399c-1.59333,-2.43593 -3.19903,-4.44527 -4.8171,-6.028c-1.674,-1.6376 -3.30767,-2.76593 -4.901,-3.385c-3.35133,-1.30185 -6.80767,-1.9001 -10.369,-1.79474c-3.44133,0.10177 -6.74433,0.84962 -9.909,2.24354c-3.16467,1.39387 -5.946,3.3257 -8.344,5.7955c-2.482,2.55653 -4.37367,5.51047 -5.675,8.8618c-0.698,1.79593 -1.243,3.7161 -1.635,5.7605c-0.39733,2.07267 -0.604,4.10003 -0.62,6.0821c-0.01667,2.06 0.175,3.92173 0.575,5.5852c0.41733,1.7356 1.04,3.157 1.868,4.2642c0.95733,1.2834 3.458,2.68913 7.502,4.2172c1.62267,0.61293 3.582,1.27657 5.878,1.9909c1.364,0.42453 3.39667,1.0308 6.098,1.8188c2.19133,0.63933 3.76767,1.1074 4.729,1.4042c1.59467,0.4924 2.856,0.9189 3.784,1.2795c2.45733,0.95467 5.04733,2.4489 7.77,4.4827c1.054,0.78713 2.19867,1.70737 3.434,2.7607c0.72933,0.622 1.7802,1.54457 3.1526,2.7677c1.07387,0.95727 1.86487,1.6547 2.373,2.0923c0.83127,0.716 1.55837,1.31147 2.1813,1.7864c1.46307,1.11533 2.68533,1.81567 3.6668,2.101c0.5002,0.1454 0.95577,0.1918 1.3667,0.1392c0.4136,-0.053 0.80537,-0.21113 1.1753,-0.4744c0.90553,-0.64453 1.733,-1.93133 2.4824,-3.8604zM-83.8336,70.9339c-0.89393,2.30107 -1.95627,3.8896 -3.187,4.7656c-1.24007,0.88267 -2.66007,1.09143 -4.26,0.6263c-0.66673,-0.1938 -1.38107,-0.51123 -2.143,-0.9523c-0.6602,-0.38213 -1.38623,-0.87503 -2.1781,-1.4787c-0.65453,-0.499 -1.4125,-1.1195 -2.2739,-1.8615c-0.51673,-0.44507 -1.3162,-1.14997 -2.3984,-2.1147c-1.36133,-1.21333 -2.40133,-2.12623 -3.12,-2.7387c-1.20267,-1.02547 -2.31367,-1.91893 -3.333,-2.6804c-2.57667,-1.925 -5.009,-3.3319 -7.297,-4.2207c-0.884,-0.34347 -2.10067,-0.7544 -3.65,-1.2328c-0.95133,-0.29373 -2.51767,-0.7588 -4.699,-1.3952c-2.71267,-0.79127 -4.75667,-1.40097 -6.132,-1.8291c-2.334,-0.72613 -4.331,-1.4027 -5.991,-2.0297c-2.044,-0.77247 -3.72367,-1.52273 -5.039,-2.2508c-1.57733,-0.8728 -2.69667,-1.7528 -3.358,-2.64c-0.992,-1.32687 -1.729,-2.99143 -2.211,-4.9937c-0.438,-1.82247 -0.648,-3.84553 -0.63,-6.0692c0.01667,-2.10333 0.23533,-4.25087 0.656,-6.4426c0.41467,-2.16327 0.99267,-4.19927 1.734,-6.108c1.4,-3.60333 3.43533,-6.78027 6.106,-9.5308c1.28333,-1.32193 2.684,-2.50913 4.202,-3.5616c1.50333,-1.04227 3.09333,-1.93262 4.77,-2.67105c1.67667,-0.73845 3.407,-1.3105 5.191,-1.71617c1.80133,-0.40963 3.62267,-0.64168 5.464,-0.69615c3.832,-0.11335 7.54967,0.52986 11.153,1.92962c1.848,0.7179 3.70667,1.99108 5.576,3.81955c1.72167,1.6844 3.41897,3.80537 5.0919,6.3629c1.57893,2.41407 3.0872,5.14053 4.5248,8.1794c1.38573,2.92933 2.6487,6.02687 3.7889,9.2926c1.12547,3.22367 2.07727,6.45587 2.8554,9.6966c0.7882,3.28253 1.35947,6.41343 1.7138,9.3927c0.3682,3.09553 0.48563,5.89427 0.3523,8.3962c-0.14253,2.67393 -0.56877,4.92473 -1.2787,6.7524z"></path><path id="圆形 2" fill-rule="evenodd" style="fill:#1CCEFF" opacity="1" d="M-97.3929 63.867C-104.238 68.5262 -106.011 77.8627 -101.352 84.7074C-96.6932 91.5522 -87.3567 93.326 -80.5119 88.6669C-73.6672 84.0078 -71.8933 74.6712 -76.5525 67.8265C-81.2116 60.9817 -90.5481 59.2079 -97.3929 63.867Z"></path><path  id="圆形 2" style="fill:#000000; opacity:1;" d="M-96.8302,64.6937c-1.56907,1.06807 -2.86367,2.39297 -3.8838,3.9747c-0.98533,1.5282 -1.64867,3.19017 -1.99,4.9859c-0.34133,1.79567 -0.33367,3.5851 0.023,5.3683c0.36867,1.84567 1.087,3.55303 2.155,5.1221c1.06827,1.56913 2.39327,2.86373 3.975,3.8838c1.5282,0.98567 3.19017,1.64907 4.9859,1.9902c1.79573,0.3412 3.5852,0.33357 5.3684,-0.0229c1.8456,-0.369 3.55297,-1.08753 5.1221,-2.1556c1.56907,-1.06807 2.86367,-2.39293 3.8838,-3.9746c0.9856,-1.52827 1.64897,-3.19023 1.9901,-4.9859c0.3412,-1.79573 0.33357,-3.5852 -0.0229,-5.3684c-0.36893,-1.84567 -1.08743,-3.55303 -2.1555,-5.1221c-1.06807,-1.56913 -2.39297,-2.86373 -3.9747,-3.8838c-1.5282,-0.9856 -3.19017,-1.649 -4.9859,-1.9902c-1.79573,-0.34113 -3.5852,-0.33347 -5.3684,0.023c-1.8456,0.36893 -3.55297,1.08743 -5.1221,2.1555zM-97.9556,63.0404c1.79273,-1.22033 3.74457,-2.04147 5.8555,-2.4634c2.03807,-0.40747 4.08263,-0.41633 6.1337,-0.0266c2.05107,0.38967 3.94993,1.14773 5.6966,2.2742c1.80907,1.16673 3.32373,2.64647 4.544,4.4392c1.22027,1.79273 2.0414,3.74453 2.4634,5.8554c0.4074,2.03813 0.41627,4.08273 0.0266,6.1338c-0.38967,2.05107 -1.14773,3.9499 -2.2742,5.6965c-1.16673,1.80907 -2.64647,3.32377 -4.4392,4.5441c-1.79273,1.22027 -3.74457,2.0414 -5.8555,2.4634c-2.03807,0.4074 -4.08263,0.41627 -6.1337,0.0266c-2.05107,-0.38973 -3.94993,-1.14783 -5.6966,-2.2743c-1.80933,-1.16673 -3.324,-2.64647 -4.544,-4.4392c-1.22,-1.79273 -2.041,-3.74453 -2.463,-5.8554c-0.408,-2.03807 -0.417,-4.08263 -0.027,-6.1337c0.39,-2.05113 1.148,-3.95 2.274,-5.6966c1.16667,-1.80907 2.64647,-3.32373 4.4394,-4.544z"></path></g></g><path  id="路径 1" style="fill:#000000; opacity:1;" d="M99.2707,158.069c0.77687,-0.084 1.95697,-0.226 3.5403,-0.426c1.50333,-0.19 2.593,-0.321 3.269,-0.393c2.814,-0.302 5.785,-1.12667 8.913,-2.474c3.082,-1.32667 5.994,-3.02067 8.736,-5.082c2.816,-2.116 5.159,-4.40133 7.029,-6.856c1.978,-2.59667 3.26033,-5.174 3.847,-7.732l0.001,-0.002c0.022,-0.09733 0.062,-0.18633 0.12,-0.267c0.05733,-0.08133 0.128,-0.14833 0.212,-0.201c0.08467,-0.05267 0.176,-0.08733 0.274,-0.104c0.098,-0.01667 0.19533,-0.014 0.292,0.008c0.048,0.01133 0.09467,0.027 0.14,0.047c0.04467,0.02 0.087,0.04433 0.127,0.073c0.04067,0.02867 0.07767,0.061 0.111,0.097c0.034,0.03533 0.064,0.074 0.09,0.116c0.026,0.042 0.048,0.086 0.066,0.132c0.01733,0.046 0.03,0.093 0.038,0.141c0.00867,0.04867 0.01233,0.09767 0.011,0.147c-0.002,0.04933 -0.00833,0.098 -0.019,0.146c-0.63533,2.76933 -2.00767,5.53867 -4.117,8.308c-1.954,2.56533 -4.39433,4.94767 -7.321,7.147c-2.83733,2.132 -5.852,3.88533 -9.044,5.26c-3.26667,1.40667 -6.382,2.269 -9.346,2.587c-0.66667,0.07133 -1.747,0.20133 -3.241,0.39c-1.59267,0.20133 -2.78167,0.34433 -3.567,0.429c-1.32787,0.144 -2.45443,0.236 -3.3797,0.276c-0.06753,0.00267 -0.13423,-0.00333 -0.2001,-0.018c-0.048,-0.01133 -0.09447,-0.027 -0.1394,-0.047c-0.04493,-0.02 -0.08747,-0.04433 -0.1276,-0.073c-0.0402,-0.02867 -0.0772,-0.061 -0.111,-0.097c-0.03373,-0.03533 -0.0637,-0.074 -0.0899,-0.116c-0.02613,-0.042 -0.04797,-0.086 -0.0655,-0.132c-0.01753,-0.046 -0.0304,-0.093 -0.0386,-0.141c-0.0082,-0.04867 -0.01157,-0.09767 -0.0101,-0.147c0.0014,-0.04933 0.0076,-0.098 0.0186,-0.146c0.00913,-0.04 0.02143,-0.07867 0.0369,-0.116c0.0154,-0.038 0.03377,-0.07433 0.0551,-0.109c0.02133,-0.03467 0.04537,-0.06733 0.0721,-0.098c0.02667,-0.03133 0.05567,-0.06 0.087,-0.086c0.03133,-0.026 0.06457,-0.04933 0.0997,-0.07c0.03513,-0.02067 0.07173,-0.03833 0.1098,-0.053c0.03807,-0.01467 0.07703,-0.026 0.1169,-0.034c0.03993,-0.00867 0.08027,-0.014 0.121,-0.016c0.89307,-0.03867 1.98757,-0.128 3.2835,-0.268z"></path><path  id="路径 1" style="fill:#000000; opacity:1;" d="M82.9576,165.409c0.0026,0.00133 0.00517,0.003 0.0077,0.005c1.8832,0.99533 4.1007,1.72667 6.6525,2.194c2.529,0.46333 5.11863,0.61967 7.7689,0.469c2.72153,-0.15533 5.2233,-0.62 7.5053,-1.394c2.41,-0.818 4.37567,-1.91833 5.897,-3.301l0.002,0.003c0.03667,-0.03267 0.076,-0.06167 0.118,-0.087c0.04267,-0.02533 0.087,-0.046 0.133,-0.062c0.046,-0.01667 0.09333,-0.02833 0.142,-0.035c0.04867,-0.00733 0.09733,-0.00967 0.146,-0.007c0.04933,0.00267 0.09767,0.01 0.145,0.022c0.048,0.012 0.094,0.02833 0.138,0.049c0.044,0.02133 0.086,0.04633 0.126,0.075c0.03933,0.02933 0.07533,0.06233 0.108,0.099c0.03333,0.036 0.06267,0.075 0.088,0.117c0.02533,0.04267 0.04633,0.087 0.063,0.133c0.01667,0.04667 0.02867,0.09433 0.036,0.143c0.00733,0.04867 0.00967,0.09767 0.007,0.147c-0.002,0.04867 -0.009,0.097 -0.021,0.145c-0.012,0.048 -0.02833,0.09433 -0.049,0.139c-0.02133,0.044 -0.04667,0.086 -0.076,0.126c-0.02933,0.03933 -0.062,0.07567 -0.098,0.109c-0.01933,0.01733 -0.03933,0.03333 -0.06,0.048c-1.666,1.49733 -3.787,2.683 -6.363,3.557c-2.41133,0.818 -5.04537,1.30833 -7.9021,1.471c-2.7696,0.158 -5.47773,-0.00567 -8.1244,-0.491c-2.31707,-0.424 -4.38287,-1.05867 -6.1974,-1.904c-0.10253,0.00067 -0.2043,-0.02 -0.3053,-0.062c-0.09993,-0.04133 -0.32233,-0.16067 -0.6672,-0.358c-0.3468,-0.19867 -0.56197,-0.33033 -0.6455,-0.395c-0.1296,-0.1 -0.2186,-0.22433 -0.267,-0.373c-0.03693,-0.114 -0.04627,-0.22967 -0.028,-0.347c0.02713,-0.176 0.1065,-0.32333 0.2381,-0.442c0.1416,-0.128 0.30807,-0.193 0.4994,-0.195c0.07793,0 0.1551,0.01167 0.2315,0.035c0.0502,0.01533 0.11487,0.042 0.194,0.08c0.10813,0.052 0.2892,0.14533 0.5432,0.28h0.0003z"></path><path  id="路径 1" style="fill:#000000; opacity:1;" d="M66.2404,71.6847c-0.57407,0.5298 -1.4379,1.34643 -2.5915,2.4499c-1.09473,1.04707 -1.89233,1.80097 -2.3928,2.2617c-2.0436,1.88227 -3.9103,4.26153 -5.6001,7.1378c-1.6648,2.83387 -2.9908,5.86287 -3.978,9.087c-1.051,3.4366 -1.6072,6.7289 -1.6686,9.8769c-0.06507,3.336 0.4371,6.227 1.5065,8.673c0.01973,0.04533 0.03487,0.092 0.0454,0.14c0.01053,0.048 0.0163,0.09667 0.0173,0.146c0.00093,0.04933 -0.00293,0.098 -0.0116,0.146c-0.00867,0.04867 -0.02197,0.096 -0.0399,0.142c-0.01793,0.046 -0.0402,0.08967 -0.0668,0.131c-0.02653,0.04133 -0.05687,0.07967 -0.091,0.115c-0.03413,0.03533 -0.0714,0.06733 -0.1118,0.096c-0.0404,0.028 -0.08317,0.052 -0.1283,0.072c-0.04513,0.01933 -0.09177,0.03433 -0.1399,0.045c-0.04807,0.01067 -0.09673,0.01633 -0.146,0.017c-0.0492,0.00133 -0.09807,-0.00233 -0.1466,-0.011c-0.04847,-0.00867 -0.09563,-0.022 -0.1415,-0.04c-0.0458,-0.018 -0.08943,-0.04033 -0.1309,-0.067c-0.04147,-0.02667 -0.07997,-0.057 -0.1155,-0.091c-0.03547,-0.034 -0.06727,-0.07133 -0.0954,-0.112c-0.0282,-0.04067 -0.05217,-0.08333 -0.0719,-0.128c-1.15727,-2.64733 -1.7012,-5.74833 -1.6318,-9.303c0.06413,-3.28767 0.64213,-6.71667 1.734,-10.287c1.0216,-3.3366 2.3946,-6.4725 4.119,-9.4077c1.76507,-3.00453 3.7242,-5.49837 5.8774,-7.4815c0.49347,-0.45433 1.2841,-1.20173 2.3719,-2.2422c1.16013,-1.10967 2.03053,-1.9324 2.6112,-2.4682c0.98147,-0.9058 1.83197,-1.65023 2.5515,-2.2333c0.0526,-0.04253 0.10987,-0.07737 0.1718,-0.1045c0.04513,-0.01973 0.09173,-0.03487 0.1398,-0.0454c0.04813,-0.01053 0.0968,-0.01627 0.146,-0.0172c0.04927,-0.001 0.09813,0.00283 0.1466,0.0115c0.04847,0.00867 0.09563,0.022 0.1415,0.04c0.04587,0.01793 0.08953,0.04017 0.131,0.0667c0.04147,0.0266 0.07993,0.05697 0.1154,0.0911c0.03553,0.03413 0.06737,0.0714 0.0955,0.1118c0.02813,0.0404 0.05207,0.08317 0.0718,0.1283c0.01633,0.0374 0.02953,0.07583 0.0396,0.1153c0.01007,0.03953 0.01687,0.0796 0.0204,0.1202c0.00353,0.04067 0.00377,0.08133 0.0007,0.122c-0.00313,0.0406 -0.00953,0.08073 -0.0192,0.1204c-0.0096,0.0396 -0.0224,0.07817 -0.0384,0.1157c-0.01593,0.03753 -0.0348,0.07353 -0.0566,0.108c-0.0218,0.0344 -0.04623,0.06683 -0.0733,0.0973c-0.02713,0.03047 -0.05653,0.05853 -0.0882,0.0842c-0.69453,0.5628 -1.52077,1.2862 -2.4787,2.1702z"></path><path  id="路径 1" style="fill:#000000; opacity:1;" d="M161.097,62.1355c-0.55867,-0.546 -1.41867,-1.36667 -2.58,-2.462c-1.10267,-1.03933 -1.89667,-1.79707 -2.382,-2.2732c-2.022,-1.97973 -4.54733,-3.74853 -7.576,-5.3064c-2.984,-1.53513 -6.143,-2.7058 -9.477,-3.512c-3.42333,-0.82793 -6.677,-1.18317 -9.761,-1.0657c-3.262,0.12427 -6.06667,0.77307 -8.414,1.9464l-0.002,0.001c-0.08933,0.04447 -0.18367,0.07023 -0.283,0.0773c-0.09867,0.00707 -0.19533,-0.00513 -0.29,-0.0366c-0.094,-0.03147 -0.17867,-0.07977 -0.254,-0.1449c-0.07533,-0.06513 -0.13533,-0.1422 -0.18,-0.2312c-0.022,-0.04407 -0.03933,-0.08983 -0.052,-0.1373c-0.01333,-0.04747 -0.02167,-0.09577 -0.025,-0.1449c-0.00333,-0.04913 -0.002,-0.09813 0.004,-0.147c0.006,-0.04887 0.017,-0.09667 0.033,-0.1434c0.01533,-0.04667 0.03533,-0.0914 0.06,-0.1342c0.024,-0.0428 0.05233,-0.0828 0.085,-0.12c0.032,-0.0372 0.06733,-0.0709 0.106,-0.1011c0.03933,-0.0302 0.081,-0.0563 0.125,-0.0783c2.54133,-1.2706 5.55133,-1.97217 9.03,-2.1047c3.222,-0.12273 6.61233,0.24613 10.171,1.1066c3.45,0.83433 6.72,2.04637 9.81,3.6361c3.16333,1.627 5.80967,3.4833 7.939,5.5689c0.47933,0.4694 1.26667,1.22053 2.362,2.2534c1.168,1.1014 2.03433,1.92827 2.599,2.4806c0.95533,0.93353 1.74267,1.7446 2.362,2.4332c0.04533,0.05027 0.083,0.10563 0.113,0.1661c0.022,0.04407 0.03967,0.08983 0.053,0.1373c0.01267,0.04747 0.02067,0.09577 0.024,0.1449c0.00333,0.04913 0.002,0.09813 -0.004,0.147c-0.006,0.04887 -0.01667,0.09667 -0.032,0.1434c-0.016,0.04667 -0.036,0.0914 -0.06,0.1342c-0.02467,0.0428 -0.053,0.0828 -0.085,0.12c-0.03267,0.0372 -0.06833,0.0709 -0.107,0.1011c-0.03867,0.0302 -0.08,0.0563 -0.124,0.0783c-0.03667,0.01827 -0.07467,0.03343 -0.114,0.0455c-0.03867,0.01207 -0.07833,0.02093 -0.119,0.0266c-0.04,0.0056 -0.08033,0.0079 -0.121,0.0069c-0.04067,-0.001 -0.08133,-0.0053 -0.122,-0.0129c-0.04,-0.0076 -0.079,-0.0184 -0.117,-0.0324c-0.03867,-0.014 -0.07567,-0.031 -0.111,-0.051c-0.03533,-0.02 -0.069,-0.04273 -0.101,-0.0682c-0.032,-0.02553 -0.06133,-0.05343 -0.088,-0.0837c-0.598,-0.66467 -1.363,-1.45257 -2.295,-2.3637z"></path></g><defs><linearGradient id="linear_0" x1="-99.58395091311559" y1="114.6323854667747" x2="-94.24713830344913" y2="149.2231129984313" gradientUnits="userSpaceOnUse"><stop offset="0" stop-color="#00F2FE" stop-opacity="1" /><stop offset="0.7685" stop-color="#4A99E8" stop-opacity="1" /></linearGradient><linearGradient id="linear_1" x1="-41.280400614593304" y1="86.1716955879482" x2="-13.99238331619344" y2="64.25448518328605" gradientUnits="userSpaceOnUse"><stop offset="0" stop-color="#00F2FE" stop-opacity="1" /><stop offset="0.7685" stop-color="#4A99E8" stop-opacity="1" /></linearGradient><linearGradient id="linear_2" x1="-100.81266697645196" y1="47.81808215453498" x2="-133.43754073165186" y2="35.14458175183371" gradientUnits="userSpaceOnUse"><stop offset="0" stop-color="#00F2FE" stop-opacity="1" /><stop offset="0.7685" stop-color="#4A99E8" stop-opacity="1" /></linearGradient></defs></svg>