<svg xmlns="http://www.w3.org/2000/svg" xmlns:xlink="http://www.w3.org/1999/xlink" width="217.80730438232422" height="217.80730438232422" viewBox="0 0 217.80730438232422 217.80730438232422" fill="none"><g opacity="1"  transform="translate(5.53863525390625 0.000030517578125)  rotate(0)"><path id="圆形 1" fill-rule="evenodd" style="fill:#AADDFF" opacity="1" d="M83.0849 196.589C131.516 207.79 179.849 177.615 191.05 129.184C202.252 80.7522 172.077 32.4198 123.645 21.2184C75.2136 10.017 26.8811 40.192 15.6797 88.6235C4.47838 137.055 34.6534 185.387 83.0849 196.589Z"></path><g opacity="1"  transform="translate(29.49688720703125 18.4903564453125)  rotate(0)"><path id="圆形 3" fill-rule="evenodd" style="fill:#AADDFF" opacity="1" d="M72.4614 93.7104C74.3834 108.778 105.688 138.365 120.756 136.443C135.824 134.521 146.478 120.753 144.556 105.685C143.557 97.8582 139.176 88.5579 133.467 85.929C128.197 83.4963 110.454 88.8645 103.212 89.7881C88.1443 91.7101 70.5395 78.6426 72.4614 93.7104Z"></path><path  id="圆形 3" style="fill:#000000; opacity:1;" d="M73.9494,93.5207c0.21433,1.68047 0.8395,3.60927 1.8755,5.7864c1.01493,2.1326 2.38127,4.4129 4.099,6.8409c1.6764,2.36933 3.6113,4.772 5.8047,7.208c2.17413,2.41467 4.49387,4.742 6.9592,6.982c2.4948,2.26667 5.0142,4.33033 7.5582,6.191c2.62067,1.91733 5.15033,3.53267 7.589,4.846c2.53067,1.36333 4.867,2.34967 7.009,2.959c2.18667,0.622 4.09433,0.829 5.723,0.621c3.49933,-0.446 6.75967,-1.548 9.781,-3.306c2.91867,-1.69867 5.41633,-3.88967 7.493,-6.573c2.07667,-2.684 3.57033,-5.652 4.481,-8.904c0.94333,-3.36533 1.192,-6.79767 0.746,-10.297c-0.24,-1.88133 -0.671,-3.79967 -1.293,-5.755c-0.63,-1.98207 -1.40367,-3.8345 -2.321,-5.5573c-0.94933,-1.78233 -1.983,-3.29373 -3.101,-4.5342c-1.14933,-1.27513 -2.32033,-2.18747 -3.513,-2.737c-0.68067,-0.31407 -1.74267,-0.47697 -3.186,-0.4887c-1.38267,-0.01127 -3.097,0.12323 -5.143,0.4035c-1.70867,0.23407 -3.73733,0.58397 -6.086,1.0497c-1.39867,0.27727 -3.47133,0.71377 -6.218,1.3095c-2.234,0.4844 -3.84533,0.8257 -4.834,1.0239c-1.648,0.33027 -2.97167,0.55913 -3.971,0.6866c-2.6604,0.3394 -5.69457,0.26163 -9.1025,-0.2333c-1.3122,-0.1906 -2.76773,-0.4551 -4.3666,-0.7935c-0.9418,-0.19933 -2.30917,-0.5095 -4.1021,-0.9305c-1.39753,-0.32813 -2.4227,-0.56303 -3.0755,-0.7047c-1.0624,-0.23047 -1.9757,-0.405 -2.7399,-0.5236c-1.7566,-0.27267 -3.1039,-0.30683 -4.0419,-0.1025c-0.44127,0.09613 -0.80177,0.24507 -1.0815,0.4468c-0.2704,0.19507 -0.487,0.459 -0.6498,0.7918c-0.44447,0.90887 -0.54207,2.34027 -0.2928,4.2942zM70.9735,93.9002c-0.65307,-5.12007 0.80077,-8.0679 4.3615,-8.8435c0.718,-0.15647 1.53727,-0.2221 2.4578,-0.1969c0.78367,0.0214 1.6779,0.1101 2.6827,0.2661c0.8232,0.12773 1.79517,0.3132 2.9159,0.5564c0.6694,0.1452 1.71113,0.38383 3.1252,0.7159c1.77153,0.41593 3.11737,0.7213 4.0375,0.9161c1.53587,0.325 2.92807,0.57817 4.1766,0.7595c3.138,0.45573 5.90177,0.5312 8.2913,0.2264c0.92933,-0.11853 2.183,-0.33597 3.761,-0.6523c0.97333,-0.19507 2.56933,-0.53317 4.788,-1.0143c2.76467,-0.59947 4.855,-1.03957 6.271,-1.3203c2.40733,-0.47733 4.49467,-0.83707 6.262,-1.0792c2.18867,-0.29993 4.047,-0.44367 5.575,-0.4312c1.874,0.01527 3.34567,0.26983 4.415,0.7637c1.56733,0.72153 3.06333,1.8727 4.488,3.4535c1.282,1.4228 2.45533,3.1337 3.52,5.1327c1.00267,1.88327 1.84667,3.9027 2.532,6.0583c0.67667,2.12793 1.14667,4.22257 1.41,6.2839c0.49733,3.90133 0.21967,7.73033 -0.833,11.487c-0.506,1.80533 -1.18233,3.547 -2.029,5.225c-0.838,1.662 -1.82733,3.23033 -2.968,4.705c-1.14067,1.474 -2.41033,2.82533 -3.809,4.054c-1.412,1.24067 -2.92833,2.33267 -4.549,3.276c-3.37133,1.962 -7.008,3.19167 -10.91,3.689c-2.034,0.25933 -4.34133,0.02233 -6.922,-0.711c-2.352,-0.66867 -4.88933,-1.73667 -7.612,-3.204c-2.55933,-1.37867 -5.20497,-3.067 -7.9369,-5.065c-2.6298,-1.924 -5.23133,-4.055 -7.8046,-6.393c-2.5396,-2.30733 -4.93007,-4.70567 -7.1714,-7.195c-2.27193,-2.52267 -4.28,-5.01667 -6.0242,-7.482c-1.81713,-2.568 -3.27013,-4.99633 -4.359,-7.285c-1.17347,-2.466 -1.8876,-4.69793 -2.1424,-6.6958z"></path><path id="圆形 3" fill-rule="evenodd" style="fill:#AADDFF" opacity="1" d="M77.6346 87.0022C89.7228 77.8038 99.6931 35.8994 90.4947 23.8112C81.2963 11.723 64.0456 9.38112 51.9574 18.5795C45.6785 23.3574 39.8152 31.8024 40.3928 38.0605C40.9211 43.841 54.4418 56.5231 58.8623 62.3324C68.0608 74.4206 65.5464 96.2006 77.6346 87.0022Z"></path><path  id="圆形 3" style="fill:#000000; opacity:1;" d="M76.7263,85.8085c1.34813,-1.02587 2.70593,-2.53167 4.0734,-4.5174c1.33973,-1.94547 2.6314,-4.26893 3.875,-6.9704c1.21367,-2.63647 2.32697,-5.51347 3.3399,-8.631c1.00407,-3.0902 1.85963,-6.2628 2.5667,-9.5178c0.71553,-3.2938 1.2431,-6.5076 1.5827,-9.6414c0.3498,-3.22813 0.48397,-6.2266 0.4025,-8.9954c-0.0846,-2.87313 -0.39867,-5.38953 -0.9422,-7.5492c-0.55493,-2.20473 -1.32937,-3.9602 -2.3233,-5.2664c-2.13627,-2.80733 -4.72097,-5.0798 -7.7541,-6.8174c-2.93033,-1.6788 -6.07667,-2.74643 -9.439,-3.2029c-3.36227,-0.4564 -6.67933,-0.26623 -9.9512,0.5705c-3.3866,0.86613 -6.4836,2.3673 -9.291,4.5035c-1.5092,1.14847 -2.95487,2.48063 -4.337,3.9965c-1.40147,1.53713 -2.61887,3.1336 -3.6522,4.7894c-1.06907,1.713 -1.86127,3.3637 -2.3766,4.9521c-0.52967,1.63287 -0.73413,3.10337 -0.6134,4.4115c0.0682,0.7462 0.458,1.74717 1.1694,3.0029c0.68173,1.20327 1.65547,2.6208 2.9212,4.2526c1.0568,1.36233 2.3741,2.9442 3.9519,4.7456c0.93947,1.07253 2.35393,2.6494 4.2434,4.7306c1.5364,1.6924 2.63757,2.9171 3.3035,3.6741c1.10993,1.26187 1.96997,2.29373 2.5801,3.0956c1.62407,2.13427 3.0738,4.8008 4.3492,7.9996c0.49107,1.23173 0.98977,2.62453 1.4961,4.1784c0.29833,0.91527 0.7134,2.2545 1.2452,4.0177c0.4146,1.37447 0.72377,2.37973 0.9275,3.0158c0.3316,1.0354 0.6371,1.91363 0.9165,2.6347c0.6422,1.6576 1.28627,2.84147 1.9322,3.5516c0.30387,0.33407 0.6131,0.5718 0.9277,0.7132c0.30413,0.13673 0.641,0.19237 1.0106,0.1669c1.00933,-0.06953 2.29777,-0.7007 3.8653,-1.8935zM78.543,88.1959c-4.1076,3.1256 -7.38747,3.34047 -9.8396,0.6446c-0.49447,-0.5436 -0.96093,-1.2203 -1.3994,-2.0301c-0.37327,-0.68933 -0.74357,-1.5081 -1.1109,-2.4563c-0.30093,-0.7768 -0.6263,-1.71127 -0.9761,-2.8034c-0.20893,-0.6524 -0.52313,-1.6739 -0.9426,-3.0645c-0.52553,-1.7422 -0.934,-3.0604 -1.2254,-3.9546c-0.48647,-1.49267 -0.9633,-2.82493 -1.4305,-3.9968c-1.17433,-2.94547 -2.49097,-5.37683 -3.9499,-7.2941c-0.56713,-0.74533 -1.38223,-1.72227 -2.4453,-2.9308c-0.65547,-0.7452 -1.74617,-1.9582 -3.2721,-3.639c-1.90147,-2.0944 -3.32777,-3.68453 -4.2789,-4.7704c-1.61707,-1.8462 -2.97227,-3.47407 -4.0656,-4.8836c-1.35433,-1.74593 -2.408,-3.28343 -3.161,-4.6125c-0.9238,-1.6306 -1.4393,-3.0326 -1.5465,-4.206c-0.15853,-1.7178 0.09053,-3.58877 0.7472,-5.6129c0.59107,-1.82193 1.48607,-3.6935 2.685,-5.6147c1.1296,-1.81007 2.45643,-3.55087 3.9805,-5.2224c1.50447,-1.65007 3.08353,-3.10427 4.7372,-4.3626c3.13007,-2.38173 6.58483,-4.0559 10.3643,-5.0225c1.8164,-0.46453 3.663,-0.74973 5.5398,-0.8556c1.85853,-0.10487 3.7113,-0.03193 5.5583,0.2188c1.84707,0.25073 3.65223,0.67437 5.4155,1.2709c1.7806,0.6024 3.48433,1.3696 5.1112,2.3016c3.385,1.9392 6.2684,4.47383 8.6502,7.6039c1.24187,1.632 2.19023,3.74893 2.8451,6.3508c0.59673,2.371 0.94063,5.10203 1.0317,8.1931c0.08553,2.90633 -0.05403,6.04197 -0.4187,9.4069c-0.351,3.23927 -0.8955,6.55763 -1.6335,9.9551c-0.7284,3.353 -1.61013,6.6223 -2.6452,9.8079c-1.04927,3.22927 -2.20527,6.21543 -3.468,8.9585c-1.3156,2.8578 -2.69203,5.33027 -4.1293,7.4174c-1.54893,2.24927 -3.12477,3.9837 -4.7275,5.2033z"></path><path id="圆形 3" fill-rule="evenodd" style="fill:#AADDFF" opacity="1" d="M68.3264 86.5861C54.3163 80.7166 13.0407 93.0343 7.17125 107.044C1.30176 121.055 7.899 137.165 21.9092 143.035C29.1864 146.083 39.4317 146.939 44.5626 143.309C49.3044 139.962 53.5271 121.911 56.3479 115.178C62.2174 101.168 82.3366 92.4556 68.3264 86.5861Z"></path><path  id="圆形 3" style="fill:#000000; opacity:1;" d="M67.7468,87.9696c-1.56247,-0.6546 -3.54543,-1.0776 -5.9489,-1.269c-2.35467,-0.18747 -5.01267,-0.14433 -7.974,0.1294c-2.89007,0.26713 -5.9383,0.74147 -9.1447,1.423c-3.1782,0.6756 -6.35353,1.52097 -9.526,2.5361c-3.21027,1.0272 -6.2573,2.17723 -9.1411,3.4501c-2.97053,1.31113 -5.63433,2.69417 -7.9914,4.1491c-2.446,1.5098 -4.46827,3.04003 -6.0668,4.5907c-1.63189,1.58267 -2.76494,3.131 -3.39915,4.645c-1.36313,3.254 -2.03883,6.62867 -2.02708,10.124c0.01135,3.37733 0.65994,6.636 1.94579,9.776c1.28583,3.14 3.10904,5.91767 5.46964,8.333c2.4434,2.5 5.29197,4.43133 8.5457,5.794c1.74913,0.73267 3.62563,1.31867 5.6295,1.758c2.032,0.44533 4.0233,0.70133 5.9739,0.768c2.018,0.06933 3.84367,-0.07 5.477,-0.418c1.67893,-0.35733 3.05463,-0.91533 4.1271,-1.674c0.6122,-0.432 1.2842,-1.27 2.016,-2.514c0.7012,-1.192 1.44193,-2.74433 2.2222,-4.657c0.65147,-1.596 1.36277,-3.52767 2.1339,-5.795c0.45907,-1.35 1.11743,-3.36333 1.9751,-6.04c0.6974,-2.17667 1.20747,-3.74267 1.5302,-4.698c0.5378,-1.592 1.00137,-2.85267 1.3907,-3.782c1.03633,-2.474 2.6208,-5.063 4.7534,-7.767c0.82113,-1.04067 1.77793,-2.16867 2.8704,-3.384c0.64353,-0.716 1.59583,-1.74533 2.8569,-3.088c0.983,-1.04607 1.699,-1.81637 2.148,-2.3109c0.73087,-0.80487 1.3387,-1.50853 1.8235,-2.111c1.1144,-1.38493 1.81763,-2.53467 2.1097,-3.4492c0.13733,-0.43013 0.1886,-0.8168 0.1538,-1.16c-0.03373,-0.33173 -0.154,-0.65127 -0.3608,-0.9586c-0.56487,-0.83933 -1.7557,-1.63957 -3.5725,-2.4007zM68.9061,85.2026c4.7606,1.99447 6.5866,4.72747 5.478,8.199c-0.22353,0.7 -0.57633,1.4423 -1.0584,2.2269c-0.4104,0.668 -0.93433,1.3981 -1.5718,2.1903c-0.52227,0.649 -1.16887,1.39807 -1.9398,2.2472c-0.46047,0.50733 -1.188,1.29 -2.1826,2.348c-1.246,1.32667 -2.18337,2.33967 -2.8121,3.039c-1.04947,1.16733 -1.96483,2.24633 -2.7461,3.237c-1.96367,2.49 -3.41097,4.846 -4.3419,7.068c-0.36193,0.864 -0.80043,2.05833 -1.3155,3.583c-0.31767,0.94 -0.8228,2.491 -1.5154,4.653c-0.86313,2.694 -1.5271,4.72433 -1.9919,6.091c-0.79033,2.32333 -1.5225,4.311 -2.1965,5.963c-0.83487,2.046 -1.63957,3.72733 -2.4141,5.044c-0.9502,1.61533 -1.9066,2.76267 -2.8692,3.442c-1.4084,0.996 -3.15323,1.71567 -5.2345,2.159c-1.8734,0.39933 -3.94177,0.56 -6.2051,0.482c-2.13233,-0.07267 -4.3033,-0.35133 -6.5129,-0.836c-2.1812,-0.47733 -4.2301,-1.11767 -6.1467,-1.921c-3.62773,-1.52 -6.80503,-3.67467 -9.5319,-6.464c-1.3105,-1.34133 -2.48079,-2.798 -3.51086,-4.37c-1.02005,-1.55733 -1.88326,-3.19833 -2.58962,-4.923c-0.70637,-1.72533 -1.24208,-3.50067 -1.60713,-5.326c-0.36863,-1.84333 -0.5561,-3.70233 -0.5624,-5.577c-0.01311,-3.90133 0.74025,-7.66567 2.26007,-11.293c0.79244,-1.89133 2.15158,-3.771 4.07742,-5.639c1.75501,-1.70267 3.94825,-3.36617 6.57972,-4.9905c2.47413,-1.52727 5.2594,-2.97423 8.3558,-4.3409c2.9808,-1.31567 6.12687,-2.50327 9.4382,-3.5628c3.268,-1.04573 6.5402,-1.9168 9.8166,-2.6132c3.3212,-0.70593 6.48527,-1.1979 9.4922,-1.4759c3.13273,-0.2896 5.96217,-0.3338 8.4883,-0.1326c2.7224,0.2168 5.0124,0.7143 6.87,1.4925z"></path><path id="圆形 2" fill-rule="evenodd" style="fill:#AACCFF" opacity="1" d="M61.2933 99.0336C65.7715 105.998 75.0583 108.016 82.0228 103.538C88.9873 99.0597 91.0052 89.7729 86.5271 82.8084C82.0489 75.8439 72.7621 73.826 65.7976 78.3042C58.8331 82.7823 56.8152 92.0691 61.2933 99.0336Z"></path><path  id="圆形 2" style="fill:#000000; opacity:1;" d="M62.555,98.2224c0.99,1.53973 2.2343,2.82093 3.7329,3.8436c1.4482,0.98867 3.03363,1.67033 4.7563,2.045c1.72267,0.374 3.44793,0.412 5.1758,0.114c1.78807,-0.30933 3.4519,-0.959 4.9915,-1.949c1.53967,-0.99 2.82107,-2.23423 3.8442,-3.7327c0.98867,-1.4482 1.67013,-3.03363 2.0444,-4.7563c0.37433,-1.72267 0.41223,-3.44793 0.1137,-5.1758c-0.30893,-1.788 -0.9584,-3.45183 -1.9484,-4.9915c-0.99,-1.53967 -2.2343,-2.82103 -3.7329,-3.8441c-1.4482,-0.98873 -3.03363,-1.67023 -4.7563,-2.0445c-1.72267,-0.37433 -3.44793,-0.41223 -5.1758,-0.1137c-1.78807,0.30893 -3.45193,0.9584 -4.9916,1.9484c-1.5396,0.99 -2.82097,2.2343 -3.8441,3.7329c-0.98867,1.4482 -1.67013,3.03363 -2.0444,4.7563c-0.37433,1.72267 -0.41223,3.44797 -0.1137,5.1759c0.30893,1.788 0.9584,3.45183 1.9484,4.9915zM60.0317,99.8449c-1.20947,-1.881 -2.00323,-3.91543 -2.3813,-6.1033c-0.36493,-2.11207 -0.31883,-4.21993 0.1383,-6.3236c0.45707,-2.10367 1.28987,-4.0406 2.4984,-5.8108c1.25187,-1.83367 2.81827,-3.35523 4.6992,-4.5647c1.881,-1.20947 3.91543,-2.00323 6.1033,-2.3813c2.11207,-0.36493 4.21993,-0.31883 6.3236,0.1383c2.10367,0.45707 4.0406,1.28987 5.8108,2.4984c1.83373,1.25187 3.35533,2.81827 4.5648,4.6992c1.2094,1.881 2.00313,3.91543 2.3812,6.1033c0.36493,2.11207 0.31883,4.21993 -0.1383,6.3236c-0.45707,2.10367 -1.28987,4.04067 -2.4984,5.811c-1.25187,1.83333 -2.81827,3.355 -4.6992,4.565c-1.881,1.20933 -3.91543,2.003 -6.1033,2.381c-2.11207,0.36467 -4.21993,0.31867 -6.3236,-0.138c-2.10367,-0.45733 -4.0406,-1.29033 -5.8108,-2.499c-1.83373,-1.252 -3.35533,-2.81837 -4.5648,-4.6991z"></path></g></g></svg>