<svg xmlns="http://www.w3.org/2000/svg" xmlns:xlink="http://www.w3.org/1999/xlink" width="244.45587158203125" height="244.4559783935547" viewBox="0 0 244.45587158203125 244.4559783935547" fill="none"><g opacity="1"  transform="translate(244.4556884765625 209.432861328125)  rotate(0)"><path id="圆形 1" fill-rule="evenodd" style="fill:#77DDFF" opacity="1" d="M-119.033 -177.148C-168.712 -178.913 -210.406 -140.078 -212.171 -90.3997C-213.935 -40.721 -175.101 0.973709 -125.422 2.73827C-75.7438 4.50282 -34.0491 -34.3316 -32.2845 -84.0102C-30.5199 -133.689 -69.3543 -175.384 -119.033 -177.148Z"></path><g opacity="1"  transform="translate(-32.48101806640625 -12.5294189453125)  rotate(0)"><path id="圆形 3" fill-rule="evenodd" fill="url(#linear_0)" opacity="1" d="M-88.9941 -78.1804C-93.7529 -92.6057 -130.123 -115.683 -144.549 -110.924C-158.974 -106.165 -166.808 -90.6186 -162.049 -76.1934C-159.577 -68.7006 -153.503 -60.406 -147.398 -58.9135C-141.761 -57.5299 -125.366 -66.1816 -118.433 -68.4686C-104.008 -73.2274 -84.2353 -63.7551 -88.9941 -78.1804Z"></path><path  id="圆形 3" style="fill:#000000; opacity:1;" d="M-89.9438,-77.8671c-0.5474,-1.65947 -1.55293,-3.48053 -3.0166,-5.4632c-1.41987,-1.9234 -3.21467,-3.92293 -5.3844,-5.9986c-2.11147,-2.01987 -4.48387,-4.0223 -7.1172,-6.0073c-2.608,-1.96607 -5.34267,-3.818 -8.204,-5.5558c-2.896,-1.75867 -5.778,-3.31267 -8.646,-4.662c-2.95867,-1.392 -5.77133,-2.504 -8.438,-3.336c-2.77867,-0.86667 -5.29533,-1.39633 -7.55,-1.589c-2.33333,-0.19933 -4.31167,-0.03133 -5.935,0.504c-3.41467,1.12667 -6.463,2.863 -9.145,5.209c-2.59067,2.26667 -4.664,4.9441 -6.22,8.0323c-1.556,3.0882 -2.474,6.3477 -2.754,9.7785c-0.29,3.5514 0.12833,7.03427 1.255,10.4486c0.60333,1.82967 1.40367,3.65807 2.401,5.4852c1.01133,1.85233 2.141,3.5485 3.389,5.0885c1.29733,1.60047 2.629,2.91537 3.995,3.9447c1.426,1.07393 2.81033,1.77503 4.153,2.1033c1.55533,0.38167 4.37967,-0.12373 8.473,-1.5162c1.64133,-0.5586 3.57533,-1.29223 5.802,-2.2009c1.32267,-0.53993 3.277,-1.36467 5.863,-2.4742c2.098,-0.9002 3.612,-1.54133 4.542,-1.9234c1.544,-0.6338 2.78867,-1.1067 3.734,-1.4187c2.504,-0.82593 5.453,-1.3197 8.847,-1.4813c1.314,-0.06253 2.78267,-0.08017 4.406,-0.0529c0.95867,0.01607 2.35633,0.0598 4.193,0.1312c1.43773,0.05593 2.4918,0.0912 3.1622,0.1058c1.0968,0.024 2.0366,0.0212 2.8194,-0.0084c1.8384,-0.06953 3.22707,-0.30623 4.166,-0.7101c0.47853,-0.20593 0.85963,-0.45987 1.1433,-0.7618c0.28547,-0.30387 0.48723,-0.675 0.6053,-1.1134c0.28907,-1.07327 0.1094,-2.59257 -0.539,-4.5579zM-88.0444,-78.4937c0.77333,2.3444 0.9636,4.24593 0.5708,5.7046c-0.3958,1.46973 -1.35897,2.53383 -2.8895,3.1923c-0.6378,0.2744 -1.39097,0.48363 -2.2595,0.6277c-0.75253,0.12487 -1.62627,0.20613 -2.6212,0.2438c-0.82253,0.03107 -1.8021,0.0342 -2.9387,0.0094c-0.6818,-0.01493 -1.74697,-0.05057 -3.1955,-0.1069c-1.82267,-0.0708 -3.20567,-0.11413 -4.149,-0.13c-1.58067,-0.02653 -3.00633,-0.00953 -4.277,0.051c-3.21333,0.15287 -5.98533,0.6138 -8.316,1.3828c-0.90067,0.2972 -2.101,0.7537 -3.601,1.3695c-0.92067,0.37807 -2.42533,1.01513 -4.514,1.9112c-2.596,1.11413 -4.56133,1.94347 -5.896,2.488c-2.26267,0.92373 -4.23367,1.67127 -5.913,2.2426c-2.06933,0.70393 -3.843,1.19317 -5.321,1.4677c-1.772,0.32913 -3.19533,0.36177 -4.27,0.0979c-1.60933,-0.3934 -3.23667,-1.2096 -4.882,-2.4486c-1.49733,-1.12767 -2.946,-2.55533 -4.346,-4.283c-1.324,-1.63413 -2.52067,-3.4306 -3.59,-5.3894c-1.05533,-1.93333 -1.904,-3.87233 -2.546,-5.817c-1.21067,-3.67107 -1.66,-7.417 -1.348,-11.2378c0.14933,-1.83633 0.47533,-3.64333 0.978,-5.421c0.49733,-1.76047 1.15833,-3.45873 1.983,-5.0948c0.82467,-1.6362 1.79633,-3.17797 2.915,-4.6253c1.12933,-1.46133 2.38733,-2.79867 3.774,-4.012c2.88533,-2.524 6.16367,-4.39167 9.835,-5.603c1.88267,-0.62133 4.12667,-0.82067 6.732,-0.598c2.4,0.20533 5.05867,0.763 7.976,1.673c2.75333,0.85933 5.651,2.00433 8.693,3.435c2.93267,1.38 5.87733,2.96767 8.834,4.763c2.918,1.7722 5.70767,3.66143 8.369,5.6677c2.696,2.0322 5.1279,4.08527 7.2957,6.1592c2.2526,2.15493 4.12293,4.24027 5.611,6.256c1.59033,2.15427 2.69263,4.1624 3.3069,6.0244z"></path><path id="圆形 3" fill-rule="evenodd" fill="url(#linear_1)" opacity="1" d="M-92.7943 -70.6086C-102.908 -59.2747 -104.708 -16.2382 -93.3738 -6.12488C-82.0399 3.98839 -64.6591 2.99921 -54.5459 -8.33468C-49.2928 -14.2217 -45.1467 -23.6295 -46.9066 -29.6628C-48.527 -35.2366 -64.2171 -45.109 -69.6639 -49.9693C-80.9978 -60.0825 -82.681 -81.9425 -92.7943 -70.6086Z"></path><path  id="圆形 3" style="fill:#000000; opacity:1;" d="M-92.0481,-69.9428c-1.1634,1.3038 -2.2377,3.08513 -3.2229,5.344c-0.9558,2.1914 -1.79007,4.74553 -2.5028,7.6624c-0.69353,2.83847 -1.24157,5.89413 -1.6441,9.167c-0.39873,3.2416 -0.6351,6.53577 -0.7091,9.8825c-0.07467,3.38753 0.02057,6.66063 0.2857,9.8193c0.27387,3.25853 0.7172,6.2502 1.33,8.975c0.63867,2.83987 1.43833,5.28443 2.399,7.3337c0.99393,2.12037 2.1287,3.74966 3.4043,4.88787c2.6826,2.39371 5.71023,4.16528 9.0829,5.31469c3.2582,1.1104 6.6136,1.56735 10.0662,1.37086c3.45253,-0.19649 6.7344,-1.03118 9.8456,-2.50409c3.22047,-1.52465 6.02757,-3.62828 8.4213,-6.31089c1.28273,-1.43756 2.46593,-3.04504 3.5496,-4.82244c1.09853,-1.80193 2.00263,-3.62827 2.7123,-5.479c0.73753,-1.92353 1.21037,-3.7344 1.4185,-5.4326c0.21707,-1.77187 0.13207,-3.3213 -0.255,-4.6483c-0.447,-1.53753 -2.2967,-3.7305 -5.5491,-6.5789c-1.30473,-1.1426 -2.9071,-2.4507 -4.8071,-3.9243c-1.12913,-0.87573 -2.82057,-2.1559 -5.0743,-3.8405c-1.82853,-1.36673 -3.14087,-2.3575 -3.937,-2.9723c-1.32067,-1.01987 -2.35253,-1.8613 -3.0956,-2.5243c-1.9672,-1.75533 -3.86933,-4.06243 -5.7064,-6.9213c-0.71107,-1.10647 -1.46063,-2.36943 -2.2487,-3.7889c-0.46533,-0.8382 -1.1263,-2.07053 -1.9829,-3.697c-0.6704,-1.27293 -1.16687,-2.20337 -1.4894,-2.7913c-0.5276,-0.9618 -0.99993,-1.77427 -1.417,-2.4374c-0.9794,-1.55733 -1.87873,-2.64157 -2.698,-3.2527c-0.41753,-0.31153 -0.82797,-0.51463 -1.2313,-0.6093c-0.40593,-0.09533 -0.82823,-0.08453 -1.2669,0.0324c-1.074,0.28633 -2.29993,1.2016 -3.6778,2.7458zM-93.5404,-71.2744c1.6436,-1.84193 3.1952,-2.9575 4.6548,-3.3467c1.47073,-0.39207 2.87387,-0.08997 4.2094,0.9063c0.55653,0.4152 1.11433,0.96283 1.6734,1.6429c0.4844,0.58927 0.99167,1.30533 1.5218,2.1482c0.43813,0.69673 0.9306,1.54347 1.4774,2.5402c0.328,0.59793 0.82983,1.53833 1.5055,2.8212c0.84967,1.6134 1.50363,2.8328 1.9619,3.6582c0.7672,1.38193 1.49473,2.6081 2.1826,3.6785c1.7388,2.70587 3.52397,4.87593 5.3555,6.5102c0.70773,0.63147 1.7032,1.4427 2.9864,2.4337c0.7878,0.60833 2.0918,1.59277 3.912,2.9533c2.26313,1.6916 3.96403,2.97893 5.1027,3.862c1.9314,1.498 3.56437,2.83137 4.8989,4.0001c1.6442,1.43993 2.9547,2.73133 3.9315,3.8742c1.171,1.37 1.911,2.58643 2.22,3.6493c0.46387,1.59027 0.57057,3.40743 0.3201,5.4515c-0.22793,1.8606 -0.74,3.82907 -1.5362,5.9054c-0.75307,1.96393 -1.71043,3.89863 -2.8721,5.8041c-1.1466,1.88072 -2.40157,3.58502 -3.7649,5.11291c-2.57373,2.88433 -5.59303,5.14666 -9.0579,6.78698c-1.6652,0.78836 -3.3932,1.40939 -5.184,1.86309c-1.7734,0.44931 -3.57463,0.72601 -5.4037,0.83011c-1.82907,0.10409 -3.65007,0.03354 -5.463,-0.21165c-1.83067,-0.24759 -3.61797,-0.66855 -5.3619,-1.2629c-3.6286,-1.23663 -6.88507,-3.14179 -9.7694,-5.71549c-1.47927,-1.31996 -2.7738,-3.16371 -3.8836,-5.53125c-1.02233,-2.18087 -1.86893,-4.76213 -2.5398,-7.7438c-0.63267,-2.81427 -1.08967,-5.89637 -1.371,-9.2463c-0.27133,-3.22913 -0.36867,-6.5728 -0.292,-10.031c0.07533,-3.41367 0.31633,-6.77447 0.723,-10.0824c0.412,-3.35053 0.97413,-6.48307 1.6864,-9.3976c0.73993,-3.02827 1.6107,-5.69067 2.6123,-7.9872c1.07053,-2.4544 2.2585,-4.4131 3.5639,-5.8761z"></path><path id="圆形 3" fill-rule="evenodd" fill="url(#linear_2)" opacity="1" d="M-83.5774 -71.9749C-68.7053 -68.8835 -30.5344 -88.8428 -27.443 -103.715C-24.3515 -118.587 -33.8986 -133.145 -48.7707 -136.236C-56.4956 -137.842 -66.7161 -136.729 -71.0612 -132.188C-75.078 -127.998 -75.7827 -109.473 -77.2684 -102.326C-80.3598 -87.454 -98.4495 -75.0663 -83.5774 -71.9749Z"></path><path  id="圆形 3" style="fill:#000000; opacity:1;" d="M-83.3739,-72.954c1.7108,0.3556 3.79063,0.3953 6.2395,0.1191c2.37573,-0.26793 5.00483,-0.82253 7.8873,-1.6638c2.80493,-0.8186 5.72523,-1.87183 8.7609,-3.1597c3.0066,-1.27547 5.97763,-2.71783 8.9131,-4.3271c2.97113,-1.6288 5.7581,-3.34783 8.3609,-5.1571c2.68507,-1.8664 5.05427,-3.74617 7.1076,-5.6393c2.14,-1.973 3.85723,-3.8878 5.1517,-5.7444c1.33933,-1.92113 2.18297,-3.71837 2.5309,-5.3917c0.73167,-3.52067 0.75203,-7.02867 0.0611,-10.524c-0.66747,-3.37667 -1.9494,-6.511 -3.8458,-9.403c-1.89647,-2.892 -4.2603,-5.31667 -7.0915,-7.274c-2.93067,-2.02733 -6.15603,-3.40667 -9.6761,-4.138c-1.88633,-0.392 -3.87003,-0.613 -5.9511,-0.663c-2.10987,-0.05 -4.1436,0.08033 -6.1012,0.391c-2.0346,0.32267 -3.83927,0.81867 -5.414,1.488c-1.64307,0.69733 -2.94243,1.54567 -3.8981,2.545c-1.108,1.15533 -2.0823,3.85367 -2.9229,8.095c-0.33713,1.70067 -0.6688,3.74233 -0.995,6.125c-0.19387,1.41533 -0.4568,3.52033 -0.7888,6.315c-0.26933,2.26667 -0.4712,3.89833 -0.6056,4.895c-0.22287,1.654 -0.43563,2.96833 -0.6383,3.943c-0.5366,2.58153 -1.58353,5.3825 -3.1408,8.4029c-0.60273,1.16907 -1.32173,2.4497 -2.157,3.8419c-0.4932,0.82213 -1.22993,2.01073 -2.2102,3.5658c-0.7672,1.217 -1.32473,2.11213 -1.6726,2.6854c-0.5692,0.93793 -1.03667,1.75323 -1.4024,2.4459c-0.859,1.62687 -1.34833,2.94783 -1.468,3.9629c-0.061,0.5174 -0.03167,0.9744 0.088,1.371c0.1204,0.39927 0.34093,0.7596 0.6616,1.081c0.785,0.78693 2.1906,1.391 4.2168,1.8122zM-83.7809,-70.9958c-2.417,-0.50247 -4.15893,-1.28843 -5.2258,-2.3579c-1.07493,-1.07767 -1.51487,-2.44387 -1.3198,-4.0986c0.08127,-0.6896 0.2766,-1.44647 0.586,-2.2706c0.26813,-0.7142 0.63467,-1.51153 1.0996,-2.392c0.38427,-0.72787 0.87133,-1.57777 1.4612,-2.5497c0.3538,-0.583 0.9173,-1.48777 1.6905,-2.7143c0.9724,-1.5426 1.70143,-2.71867 2.1871,-3.5282c0.81313,-1.3554 1.51127,-2.59857 2.0944,-3.7295c1.47393,-2.8588 2.46067,-5.48993 2.9602,-7.8934c0.19307,-0.92867 0.39787,-2.19633 0.6144,-3.803c0.133,-0.986 0.33357,-2.60733 0.6017,-4.864c0.3334,-2.806 0.59783,-4.92267 0.7933,-6.35c0.33153,-2.422 0.66977,-4.503 1.0147,-6.243c0.42493,-2.144 0.88807,-3.92467 1.3894,-5.342c0.60093,-1.69933 1.28437,-2.94833 2.0503,-3.747c1.14527,-1.19733 2.66567,-2.19833 4.5612,-3.003c1.72533,-0.73333 3.6861,-1.27433 5.8823,-1.623c2.0774,-0.32933 4.2316,-0.46733 6.4626,-0.414c2.20207,0.05267 4.30553,0.28733 6.3104,0.704c3.78473,0.78667 7.2536,2.27033 10.4066,4.451c1.5154,1.048 2.91723,2.234 4.2055,3.558c1.27587,1.31067 2.41613,2.732 3.4208,4.264c1.00467,1.532 1.85407,3.14433 2.5482,4.837c0.70093,1.70933 1.23003,3.46767 1.5873,5.275c0.74333,3.76067 0.72163,7.53367 -0.0651,11.319c-0.40347,1.94067 -1.35293,3.9835 -2.8484,6.1285c-1.37753,1.97587 -3.18973,3.99957 -5.4366,6.0711c-2.1208,1.95527 -4.5614,3.89227 -7.3218,5.811c-2.6608,1.8496 -5.5078,3.60583 -8.541,5.2687c-2.99407,1.6414 -6.0252,3.1129 -9.0934,4.4145c-3.10773,1.3184 -6.10163,2.39787 -8.9817,3.2384c-2.99253,0.8734 -5.73367,1.4505 -8.2234,1.7313c-2.6608,0.30013 -4.95103,0.2507 -6.8707,-0.1483z"></path><path id="圆形 2" fill-rule="evenodd" style="fill:#1CCEFF" opacity="1" d="M-79.0456 -85.5344C-84.7692 -91.5177 -94.2703 -91.7284 -100.254 -86.0049C-106.237 -80.2813 -106.448 -70.7801 -100.724 -64.7969C-95.0005 -58.8136 -85.4993 -58.6029 -79.5161 -64.3264C-73.5328 -70.05 -73.3221 -79.5511 -79.0456 -85.5344Z"></path><path  id="圆形 2" style="fill:#000000; opacity:1;" d="M-79.7682,-84.8431c-1.31207,-1.37167 -2.83223,-2.43023 -4.5605,-3.1757c-1.66973,-0.7202 -3.4183,-1.10057 -5.2457,-1.1411c-1.8274,-0.04053 -3.59113,0.26193 -5.2912,0.9074c-1.75953,0.66807 -3.3251,1.65813 -4.6967,2.9702c-1.3718,1.31213 -2.43037,2.8323 -3.1757,4.5605c-0.72,1.66973 -1.10033,3.4183 -1.141,5.2457c-0.04067,1.8274 0.26167,3.59113 0.907,5.2912c0.668,1.7596 1.65833,3.3252 2.971,4.6968c1.3118,1.3716 2.8318,2.43013 4.56,3.1756c1.66973,0.7202 3.4183,1.1006 5.2457,1.1412c1.8274,0.04053 3.59113,-0.26197 5.2912,-0.9075c1.7596,-0.66807 3.3252,-1.65813 4.6968,-2.9702c1.3716,-1.31207 2.43013,-2.83223 3.1756,-4.5605c0.7202,-1.66973 1.1006,-3.4183 1.1412,-5.2457c0.04053,-1.8274 -0.26197,-3.59113 -0.9075,-5.2912c-0.66807,-1.75953 -1.65813,-3.32513 -2.9702,-4.6968zM-78.323,-86.2257c1.49907,1.56713 2.63067,3.35693 3.3948,5.3694c0.73773,1.94307 1.08347,3.95823 1.0372,6.0455c-0.04633,2.0872 -0.4811,4.08503 -1.3043,5.9935c-0.8526,1.9766 -2.06243,3.71443 -3.6295,5.2135c-1.56713,1.49907 -3.35693,2.63067 -5.3694,3.3948c-1.94307,0.73773 -3.9582,1.08347 -6.0454,1.0372c-2.08727,-0.04633 -4.08513,-0.4811 -5.9936,-1.3043c-1.9766,-0.8526 -3.71453,-2.06243 -5.2138,-3.6295c-1.49867,-1.56713 -2.63,-3.35693 -3.394,-5.3694c-0.738,-1.94307 -1.084,-3.9582 -1.038,-6.0454c0.04667,-2.08727 0.48167,-4.08513 1.305,-5.9936c0.85267,-1.9766 2.06233,-3.71443 3.629,-5.2135c1.5672,-1.49907 3.35703,-2.63067 5.3695,-3.3948c1.94307,-0.73773 3.95823,-1.08343 6.0455,-1.0371c2.0872,0.04627 4.08503,0.481 5.9935,1.3042c1.9766,0.8526 3.71443,2.06247 5.2135,3.6296z"></path></g></g><defs><linearGradient id="linear_0" x1="-120.28580353925406" y1="-73.096612171392" x2="-153.52388054559393" y2="-62.13165722754376" gradientUnits="userSpaceOnUse"><stop offset="0" stop-color="#00F2FE" stop-opacity="1" /><stop offset="0.7685" stop-color="#4A99E8" stop-opacity="1" /></linearGradient><linearGradient id="linear_1" x1="-55.232195501053994" y1="-28.45898334454256" x2="-29.117205329428387" y2="-5.156466563389969" gradientUnits="userSpaceOnUse"><stop offset="0" stop-color="#00F2FE" stop-opacity="1" /><stop offset="0.7685" stop-color="#4A99E8" stop-opacity="1" /></linearGradient><linearGradient id="linear_2" x1="-54.01839388014534" y1="-95.85780828429793" x2="-46.895325546230076" y2="-130.12531326365664" gradientUnits="userSpaceOnUse"><stop offset="0" stop-color="#00F2FE" stop-opacity="1" /><stop offset="0.7685" stop-color="#4A99E8" stop-opacity="1" /></linearGradient></defs></svg>