<svg xmlns="http://www.w3.org/2000/svg" xmlns:xlink="http://www.w3.org/1999/xlink" width="217.80757522583008" height="217.8073844909668" viewBox="0 0 217.80757522583008 217.8073844909668" fill="none"><g opacity="1"  transform="translate(5.5386505126953125 0)  rotate(0)"><path id="圆形 1" fill-rule="evenodd" style="fill:#AADDFF" opacity="1" d="M83.0852 196.589C131.517 207.79 179.849 177.615 191.051 129.184C202.252 80.7524 172.077 32.4199 123.645 21.2185C75.2139 10.0171 26.8814 40.1921 15.68 88.6236C4.47865 137.055 34.6537 185.388 83.0852 196.589Z"></path><g opacity="1"  transform="translate(29.497161865234375 18.49053955078125)  rotate(0)"><path id="圆形 3" fill-rule="evenodd" style="fill:#AADDFF" opacity="1" d="M72.4614 93.7104C74.3834 108.778 105.688 138.365 120.756 136.443C135.824 134.521 146.478 120.753 144.556 105.685C143.557 97.8581 139.176 88.5578 133.467 85.929C128.197 83.4962 110.454 88.8644 103.212 89.788C88.1443 91.71 70.5395 78.6425 72.4614 93.7104Z"></path><path  id="圆形 3" style="fill:#000000; opacity:1;" d="M72.9574,93.6471c0.22787,1.78627 0.8827,3.81613 1.9645,6.0896c1.03953,2.18487 2.43477,4.51463 4.1857,6.9893c1.69893,2.40067 3.6582,4.83367 5.8778,7.299c2.1966,2.43933 4.53993,4.79033 7.03,7.053c2.52093,2.29 5.06773,4.376 7.6404,6.258c2.65747,1.944 5.22587,3.584 7.7052,4.92c2.59467,1.39733 4.998,2.41067 7.21,3.04c2.318,0.65933 4.35867,0.87633 6.122,0.651c3.63333,-0.46333 7.01933,-1.608 10.158,-3.434c3.03133,-1.764 5.625,-4.039 7.781,-6.825c2.156,-2.78667 3.707,-5.86867 4.653,-9.246c0.98,-3.496 1.23833,-7.06067 0.775,-10.694c-0.248,-1.94133 -0.692,-3.91827 -1.332,-5.9308c-0.64867,-2.0402 -1.446,-3.94837 -2.392,-5.7245c-0.98733,-1.85453 -2.06733,-3.43243 -3.24,-4.7337c-1.24067,-1.37707 -2.52,-2.36903 -3.838,-2.9759c-1.542,-0.71173 -4.503,-0.7676 -8.883,-0.1676c-1.728,0.23673 -3.776,0.5899 -6.144,1.0595c-1.404,0.27833 -3.48267,0.71607 -6.236,1.3132c-2.22933,0.48333 -3.83567,0.82353 -4.819,1.0206c-1.62467,0.32567 -2.925,0.55073 -3.901,0.6752c-2.5698,0.32787 -5.5137,0.25087 -8.8317,-0.231c-1.29093,-0.18747 -2.72537,-0.4482 -4.3033,-0.7822c-0.9344,-0.19773 -2.2946,-0.5063 -4.0806,-0.9257c-1.40327,-0.32947 -2.43397,-0.5656 -3.0921,-0.7084c-1.08187,-0.23473 -2.01473,-0.41293 -2.7986,-0.5346c-1.87933,-0.29167 -3.34867,-0.3221 -4.408,-0.0913c-0.5768,0.1256 -1.06133,0.32987 -1.4536,0.6128c-0.406,0.29273 -0.72707,0.68057 -0.9632,1.1635c-0.53213,1.08813 -0.66097,2.70813 -0.3865,4.86zM71.9654,93.7737c-0.29973,-2.34987 -0.13967,-4.1585 0.4802,-5.4259c0.5978,-1.22247 1.63187,-1.99383 3.1022,-2.3141c1.18073,-0.2572 2.77217,-0.23043 4.7743,0.0803c0.80353,0.12473 1.75597,0.30657 2.8573,0.5455c0.66367,0.14393 1.69987,0.3813 3.1086,0.7121c1.77893,0.41773 3.13193,0.7247 4.059,0.9209c1.55693,0.32953 2.97027,0.5865 4.24,0.7709c3.228,0.4688 6.082,0.54503 8.562,0.2287c0.95267,-0.12153 2.22967,-0.3428 3.831,-0.6638c0.97733,-0.196 2.57833,-0.53513 4.803,-1.0174c2.75933,-0.59833 4.84367,-1.03727 6.253,-1.3168c2.388,-0.47353 4.45567,-0.82997 6.203,-1.0693c2.142,-0.2934 3.95267,-0.43407 5.432,-0.422c1.73,0.01407 3.065,0.23807 4.005,0.672c1.44267,0.66427 2.83033,1.73583 4.163,3.2147c1.22733,1.362 2.354,3.0064 3.38,4.9332c0.974,1.82967 1.79467,3.79347 2.462,5.8914c0.65867,2.06993 1.11567,4.10557 1.371,6.1069c0.48067,3.768 0.21267,7.465 -0.804,11.091c-0.488,1.74267 -1.141,3.42433 -1.959,5.045c-0.80933,1.60467 -1.76467,3.119 -2.866,4.543c-1.102,1.42333 -2.328,2.72833 -3.678,3.915c-1.36333,1.198 -2.82733,2.252 -4.392,3.162c-3.25467,1.894 -6.76567,3.08133 -10.533,3.562c-1.89933,0.242 -4.07367,0.015 -6.523,-0.681c-2.282,-0.64933 -4.752,-1.69 -7.41,-3.122c-2.51933,-1.35733 -5.1265,-3.02167 -7.8215,-4.993c-2.60127,-1.90267 -5.17547,-4.011 -7.7226,-6.325c-2.5148,-2.28467 -4.88167,-4.65933 -7.1006,-7.124c-2.2458,-2.494 -4.2295,-4.95767 -5.9511,-7.391c-1.784,-2.52133 -3.2081,-4.90033 -4.2723,-7.137c-1.12767,-2.36953 -1.81217,-4.5003 -2.0535,-6.3923z"></path><path id="圆形 3" fill-rule="evenodd" style="fill:#AADDFF" opacity="1" d="M77.6346 87.0022C89.7228 77.8037 99.6931 35.8993 90.4947 23.8111C81.2963 11.7229 64.0456 9.38106 51.9574 18.5795C45.6785 23.3573 39.8152 31.8024 40.3928 38.0605C40.9211 43.8409 54.4418 56.523 58.8623 62.3324C68.0608 74.4206 65.5464 96.2006 77.6346 87.0022Z"></path><path  id="圆形 3" style="fill:#000000; opacity:1;" d="M77.3318,86.6042c1.43307,-1.0904 2.86357,-2.6724 4.2915,-4.746c1.3722,-1.99267 2.69213,-4.3658 3.9598,-7.1194c1.23,-2.67193 2.35753,-5.5853 3.3826,-8.7401c1.0144,-3.12213 1.87867,-6.32697 2.5928,-9.6145c0.72307,-3.32847 1.2563,-6.57717 1.5997,-9.7461c0.35473,-3.27373 0.49067,-6.3179 0.4078,-9.1325c-0.08673,-2.9458 -0.41073,-5.53373 -0.972,-7.7638c-0.5882,-2.33713 -1.4206,-4.2131 -2.4972,-5.6279c-2.21807,-2.91493 -4.90233,-5.2748 -8.0528,-7.0796c-3.0432,-1.7434 -6.31037,-2.85207 -9.8015,-3.326c-3.4912,-0.474 -6.93573,-0.2765 -10.3336,0.5925c-3.5176,0.89967 -6.73383,2.45853 -9.6487,4.6766c-1.5574,1.18507 -3.04753,2.5579 -4.4704,4.1185c-1.4424,1.582 -2.6963,3.22657 -3.7617,4.9337c-1.11233,1.7824 -1.93877,3.50673 -2.4793,5.173c-0.57207,1.76327 -0.79143,3.36723 -0.6581,4.8119c0.1546,1.69127 1.5867,4.28347 4.2963,7.7766c1.06887,1.37793 2.3988,2.9751 3.9898,4.7915c0.94287,1.07653 2.36127,2.65783 4.2552,4.7439c1.53327,1.68893 2.63093,2.90973 3.293,3.6624c1.09433,1.24413 1.9394,2.2577 2.5352,3.0407c1.569,2.06187 2.97437,4.65 4.2161,7.7644c0.48307,1.21173 0.9745,2.58433 1.4743,4.1178c0.29593,0.90813 0.7088,2.24037 1.2386,3.9967c0.41627,1.38007 0.7271,2.39077 0.9325,3.0321c0.33767,1.05433 0.64977,1.9513 0.9363,2.6909c0.68707,1.77347 1.39537,3.0612 2.1249,3.8632c0.3972,0.43673 0.81637,0.75423 1.2575,0.9525c0.45653,0.2052 0.95297,0.28933 1.4893,0.2524c1.2084,-0.08327 2.67577,-0.78173 4.4021,-2.0954zM77.9374,87.4c-1.88513,1.43453 -3.53147,2.20027 -4.939,2.2972c-1.3576,0.09347 -2.54267,-0.4164 -3.5552,-1.5296c-0.81313,-0.89393 -1.58567,-2.28553 -2.3176,-4.1748c-0.2938,-0.75827 -0.61257,-1.674 -0.9563,-2.7472c-0.20713,-0.64673 -0.51963,-1.66283 -0.9375,-3.0483c-0.52773,-1.7494 -0.9384,-3.0746 -1.232,-3.9756c-0.49313,-1.51313 -0.97727,-2.86557 -1.4524,-4.0573c-1.20807,-3.02993 -2.56907,-5.5397 -4.083,-7.5293c-0.58147,-0.76413 -1.41153,-1.75937 -2.4902,-2.9857c-0.6586,-0.74873 -1.7528,-1.96563 -3.2826,-3.6507c-1.89787,-2.09047 -3.3202,-3.6762 -4.267,-4.7572c-1.60413,-1.8314 -2.94673,-3.4439 -4.0278,-4.8375c-1.3248,-1.708 -2.3518,-3.20553 -3.081,-4.4926c-0.853,-1.5056 -1.3266,-2.77393 -1.4208,-3.805c-0.146,-1.5812 0.0882,-3.31867 0.7026,-5.2124c0.56573,-1.74407 1.42647,-3.542 2.5822,-5.3938c1.0974,-1.7586 2.38773,-3.4513 3.871,-5.0781c1.46367,-1.60527 2.99827,-3.01877 4.6038,-4.2405c3.02247,-2.29993 6.35797,-3.91647 10.0065,-4.8496c1.7536,-0.44847 3.5364,-0.7238 5.3484,-0.826c1.79473,-0.1012 3.5839,-0.03073 5.3675,0.2114c1.78367,0.24213 3.52683,0.6512 5.2295,1.2272c1.7192,0.5816 3.36407,1.32227 4.9346,2.222c3.26773,1.872 6.05157,4.31927 8.3515,7.3418c1.15927,1.5234 2.04967,3.51983 2.6712,5.9893c0.579,2.3006 0.91293,4.9601 1.0018,7.9785c0.0842,2.86047 -0.05353,5.95037 -0.4132,9.2697c-0.3472,3.20407 -0.8861,6.4876 -1.6167,9.8506c-0.72127,3.32027 -1.59427,6.55733 -2.619,9.7112c-1.03713,3.192 -2.1789,6.14177 -3.4253,8.8493c-1.29153,2.80567 -2.6397,5.22843 -4.0445,7.2683c-1.48847,2.16147 -2.99163,3.8197 -4.5095,4.9747z"></path><path id="圆形 3" fill-rule="evenodd" style="fill:#AADDFF" opacity="1" d="M68.3264 86.586C54.3163 80.7166 13.0407 93.0342 7.17125 107.044C1.30176 121.055 7.899 137.165 21.9092 143.035C29.1864 146.083 39.4317 146.939 44.5626 143.309C49.3044 139.962 53.5271 121.911 56.3479 115.178C62.2174 101.168 82.3366 92.4555 68.3264 86.586Z"></path><path  id="圆形 3" style="fill:#000000; opacity:1;" d="M68.1332,87.0472c-1.66087,-0.6958 -3.74617,-1.14363 -6.2559,-1.3435c-2.4118,-0.19207 -5.12697,-0.14857 -8.1455,0.1305c-2.929,0.27073 -6.01583,0.75093 -9.2605,1.4406c-3.211,0.68253 -6.4186,1.53647 -9.6228,2.5618c-3.24407,1.038 -6.32413,2.20053 -9.2402,3.4876c-3.01253,1.32967 -5.71683,2.73403 -8.1129,4.2131c-2.5078,1.548 -4.58703,3.12257 -6.2377,4.7237c-1.72989,1.678 -2.93832,3.337 -3.62528,4.977c-1.41536,3.378 -2.11694,6.88233 -2.10474,10.513c0.01179,3.50733 0.68524,6.89133 2.02037,10.152c1.33514,3.26 3.22846,6.14433 5.67995,8.653c2.53793,2.596 5.49607,4.60167 8.8744,6.017c1.805,0.75667 3.73897,1.361 5.8019,1.813c2.09133,0.458 4.14253,0.72167 6.1536,0.791c2.0998,0.072 4.00633,-0.07467 5.7196,-0.44c1.81307,-0.386 3.31183,-0.998 4.4963,-1.836c1.3874,-0.97933 2.91627,-3.51567 4.5866,-7.609c0.65887,-1.61467 1.3771,-3.565 2.1547,-5.851c0.4608,-1.35467 1.12103,-3.37367 1.9807,-6.057c0.696,-2.172 1.20443,-3.733 1.5253,-4.683c0.53027,-1.57 0.98547,-2.80867 1.3656,-3.716c1.0012,-2.39 2.53993,-4.901 4.6162,-7.533c0.80787,-1.02467 1.75087,-2.13667 2.829,-3.336c0.63847,-0.71067 1.5858,-1.73433 2.842,-3.071c0.987,-1.0506 1.70687,-1.82517 2.1596,-2.3237c0.7442,-0.8196 1.36493,-1.5384 1.8622,-2.1564c1.19233,-1.48173 1.9534,-2.739 2.2832,-3.7718c0.1796,-0.56233 0.24497,-1.0841 0.1961,-1.5653c-0.0506,-0.49793 -0.22597,-0.9699 -0.5261,-1.4159c-0.67627,-1.00487 -2.01483,-1.92643 -4.0157,-2.7647zM68.5196,86.1249c2.18493,0.91533 3.67123,1.95823 4.4589,3.1287c0.7598,1.12893 0.9108,2.41017 0.453,3.8437c-0.3676,1.1512 -1.1865,2.51603 -2.4567,4.0945c-0.5098,0.63353 -1.14347,1.36743 -1.901,2.2017c-0.45653,0.503 -1.18023,1.28183 -2.1711,2.3365c-1.2512,1.33133 -2.19353,2.34933 -2.827,3.054c-1.06387,1.184 -1.99307,2.27967 -2.7876,3.287c-2.02,2.56133 -3.513,4.99467 -4.479,7.3c-0.37107,0.886 -0.81793,2.10267 -1.3406,3.65c-0.31913,0.94467 -0.8259,2.50067 -1.5203,4.668c-0.86147,2.68867 -1.5236,4.71333 -1.9864,6.074c-0.78393,2.30467 -1.50913,4.27367 -2.1756,5.907c-0.81667,2.00133 -1.60003,3.63967 -2.3501,4.915c-0.8774,1.49133 -1.739,2.53567 -2.5848,3.133c-1.2964,0.91667 -2.9182,1.58233 -4.8654,1.997c-1.79333,0.382 -3.78077,0.53567 -5.9623,0.461c-2.07173,-0.07133 -4.18283,-0.34233 -6.3333,-0.813c-2.12207,-0.46533 -4.1135,-1.08767 -5.9743,-1.867c-3.503,-1.468 -6.5707,-3.54833 -9.2031,-6.241c-1.2652,-1.29467 -2.39506,-2.701 -3.38957,-4.219c-0.98503,-1.504 -1.81859,-3.08867 -2.5007,-4.754c-0.68213,-1.666 -1.19944,-3.38033 -1.55195,-5.143c-0.35592,-1.77933 -0.53692,-3.574 -0.543,-5.384c-0.01265,-3.766 0.71482,-7.40067 2.18241,-10.904c0.7397,-1.76533 2.02347,-3.53467 3.85131,-5.308c1.70287,-1.6516 3.8391,-3.27047 6.4087,-4.8566c2.43513,-1.50313 5.17993,-2.9288 8.2344,-4.277c2.94847,-1.3014 6.06153,-2.4765 9.3392,-3.5253c3.23613,-1.03547 6.47603,-1.89793 9.7197,-2.5874c3.28293,-0.69787 6.4084,-1.18397 9.3764,-1.4583c3.0756,-0.28427 5.84787,-0.3281 8.3168,-0.1315c2.61613,0.20827 4.8038,0.68093 6.563,1.418z"></path><path id="圆形 2" fill-rule="evenodd" style="fill:#AADDFF" opacity="1" d="M61.2933 99.0336C65.7715 105.998 75.0583 108.016 82.0228 103.538C88.9873 99.0597 91.0052 89.7729 86.5271 82.8083C82.0489 75.8438 72.7621 73.8259 65.7976 78.3041C58.8331 82.7823 56.8152 92.0691 61.2933 99.0336Z"></path><path  id="圆形 2" style="fill:#000000; opacity:1;" d="M61.7139,98.7632c1.06313,1.6532 2.39987,3.02947 4.0102,4.1288c1.55553,1.062 3.25813,1.794 5.1078,2.196c1.8496,0.402 3.7024,0.44267 5.5584,0.122c1.92127,-0.332 3.70863,-1.02967 5.3621,-2.093c1.6534,-1.06267 3.0298,-2.3993 4.1292,-4.0099c1.06193,-1.55553 1.79383,-3.25813 2.1957,-5.1078c0.40193,-1.84967 0.44257,-3.70247 0.1219,-5.5584c-0.332,-1.92133 -1.02957,-3.7087 -2.0927,-5.3621c-1.06313,-1.65347 -2.39987,-3.02987 -4.0102,-4.1292c-1.55547,-1.06193 -3.25807,-1.79387 -5.1078,-2.1958c-1.84967,-0.40193 -3.70247,-0.44253 -5.5584,-0.1218c-1.92133,0.33193 -3.7087,1.0295 -5.3621,2.0927c-1.6534,1.06313 -3.02977,2.39983 -4.1291,4.0101c-1.062,1.55553 -1.79393,3.25813 -2.1958,5.1078c-0.40193,1.84967 -0.44257,3.70247 -0.1219,5.5584c0.332,1.92133 1.02957,3.70873 2.0927,5.3622zM60.8728,99.304c-1.13633,-1.7672 -1.882,-3.6781 -2.237,-5.7327c-0.3428,-1.984 -0.29943,-3.96433 0.1301,-5.941c0.42947,-1.97667 1.21183,-3.79643 2.3471,-5.4593c1.1756,-1.722 2.647,-3.15117 4.4142,-4.2875c1.7672,-1.13627 3.67807,-1.8819 5.7326,-2.2369c1.98407,-0.3428 3.96443,-0.29947 5.9411,0.13c1.97667,0.42953 3.79643,1.2119 5.4593,2.3471c1.722,1.1756 3.15113,2.647 4.2874,4.4142c1.13633,1.7672 1.882,3.6781 2.237,5.7327c0.3428,1.984 0.29943,3.96433 -0.1301,5.941c-0.42947,1.97667 -1.21183,3.79643 -2.3471,5.4593c-1.1756,1.72207 -2.647,3.1511 -4.4142,4.2871c-1.7672,1.13667 -3.67807,1.88233 -5.7326,2.237c-1.98407,0.34333 -3.96443,0.3 -5.9411,-0.13c-1.97667,-0.42933 -3.79643,-1.21167 -5.4593,-2.347c-1.722,-1.17533 -3.15113,-2.64667 -4.2874,-4.414z"></path></g></g></svg>